<svg xmlns="http://www.w3.org/2000/svg" xmlns:xlink="http://www.w3.org/1999/xlink" width="77" zoomAndPan="magnify" viewBox="0 0 57.75 55.5" height="74" preserveAspectRatio="xMidYMid meet" version="1.0"><defs><clipPath id="6218ec4839"><path d="M 0.132812 0 L 57.367188 0 L 57.367188 55.003906 L 0.132812 55.003906 Z M 0.132812 0 " clip-rule="nonzero"/></clipPath><clipPath id="3783c47e60"><path d="M 0.132812 0 L 57.367188 0 L 57.367188 54.261719 L 0.132812 54.261719 Z M 0.132812 0 " clip-rule="nonzero"/></clipPath></defs><g clip-path="url(#6218ec4839)"><path fill="#ffffff" d="M 0.132812 0 L 57.367188 0 L 57.367188 55.003906 L 0.132812 55.003906 Z M 0.132812 0 " fill-opacity="1" fill-rule="nonzero"/><path fill="#eae1f2" d="M 0.132812 0 L 57.367188 0 L 57.367188 55.003906 L 0.132812 55.003906 Z M 0.132812 0 " fill-opacity="1" fill-rule="nonzero"/></g><g clip-path="url(#3783c47e60)"><path fill="#5e17eb" d="M 57.007812 53.050781 C 57.007812 53.863281 56.347656 54.523438 55.535156 54.523438 L 1.605469 54.523438 C 0.792969 54.523438 0.132812 53.863281 0.132812 53.050781 C 0.132812 52.238281 0.792969 51.578125 1.605469 51.578125 L 55.535156 51.578125 C 56.347656 51.578125 57.007812 52.238281 57.007812 53.050781 Z M 36.386719 49.695312 L 20.757812 49.695312 L 20.757812 11.914062 L 36.386719 0.0078125 Z M 27.355469 42.5625 L 23.542969 42.5625 L 23.542969 45.503906 L 27.355469 45.503906 Z M 27.355469 36.453125 L 23.542969 36.453125 L 23.542969 39.394531 L 27.355469 39.394531 Z M 27.355469 30.34375 L 23.542969 30.34375 L 23.542969 33.289062 L 27.355469 33.289062 Z M 27.355469 24.234375 L 23.542969 24.234375 L 23.542969 27.179688 L 27.355469 27.179688 Z M 27.355469 18.128906 L 23.542969 18.128906 L 23.542969 21.070312 L 27.355469 21.070312 Z M 33.597656 42.5625 L 29.785156 42.5625 L 29.785156 45.503906 L 33.597656 45.503906 Z M 33.597656 36.453125 L 29.785156 36.453125 L 29.785156 39.394531 L 33.597656 39.394531 Z M 33.597656 30.34375 L 29.785156 30.34375 L 29.785156 33.289062 L 33.597656 33.289062 Z M 33.597656 24.234375 L 29.785156 24.234375 L 29.785156 27.179688 L 33.597656 27.179688 Z M 33.597656 18.128906 L 29.785156 18.128906 L 29.785156 21.070312 L 33.597656 21.070312 Z M 51.578125 49.695312 L 39.328125 49.695312 L 39.328125 14.15625 L 51.578125 23.488281 Z M 47.359375 42.558594 L 43.546875 42.558594 L 43.546875 45.503906 L 47.359375 45.503906 Z M 47.359375 36.453125 L 43.546875 36.453125 L 43.546875 39.394531 L 47.359375 39.394531 Z M 47.359375 30.34375 L 43.546875 30.34375 L 43.546875 33.289062 L 47.359375 33.289062 Z M 47.359375 24.234375 L 43.546875 24.234375 L 43.546875 27.179688 L 47.359375 27.179688 Z M 17.8125 49.695312 L 5.566406 49.695312 L 5.566406 34.542969 L 17.8125 25.210938 Z M 13.597656 42.558594 L 9.785156 42.558594 L 9.785156 45.503906 L 13.597656 45.503906 Z M 13.597656 36.453125 L 9.785156 36.453125 L 9.785156 39.394531 L 13.597656 39.394531 Z M 13.597656 36.453125 " fill-opacity="1" fill-rule="evenodd"/></g></svg>