<svg xmlns="http://www.w3.org/2000/svg" xmlns:xlink="http://www.w3.org/1999/xlink" width="133" zoomAndPan="magnify" viewBox="0 0 99.75 30.000001" height="40" preserveAspectRatio="xMidYMid meet" version="1.0"><defs><g/><clipPath id="5e40f3d060"><path d="M 1.488281 0 L 98.019531 0 L 98.019531 29.03125 L 1.488281 29.03125 Z M 1.488281 0 " clip-rule="nonzero"/></clipPath><clipPath id="9ae607d1f4"><path d="M 1.488281 0 L 98.019531 0 L 98.019531 29.03125 L 1.488281 29.03125 Z M 1.488281 0 " clip-rule="nonzero"/></clipPath><clipPath id="08588de172"><path d="M 7.292969 0 L 92.214844 0 C 93.753906 0 95.230469 0.613281 96.320312 1.699219 C 97.410156 2.789062 98.019531 4.265625 98.019531 5.804688 L 98.019531 23.222656 C 98.019531 24.765625 97.410156 26.242188 96.320312 27.332031 C 95.230469 28.417969 93.753906 29.03125 92.214844 29.03125 L 7.292969 29.03125 C 5.753906 29.03125 4.277344 28.417969 3.1875 27.332031 C 2.101562 26.242188 1.488281 24.765625 1.488281 23.222656 L 1.488281 5.804688 C 1.488281 4.265625 2.101562 2.789062 3.1875 1.699219 C 4.277344 0.613281 5.753906 0 7.292969 0 Z M 7.292969 0 " clip-rule="nonzero"/></clipPath><clipPath id="2e9c0fb33e"><path d="M 0.488281 0 L 97 0 L 97 29.03125 L 0.488281 29.03125 Z M 0.488281 0 " clip-rule="nonzero"/></clipPath><clipPath id="57d0ec4d82"><path d="M 6.292969 0 L 91.214844 0 C 92.753906 0 94.230469 0.613281 95.320312 1.699219 C 96.410156 2.789062 97.019531 4.265625 97.019531 5.804688 L 97.019531 23.222656 C 97.019531 24.765625 96.410156 26.242188 95.320312 27.332031 C 94.230469 28.417969 92.753906 29.03125 91.214844 29.03125 L 6.292969 29.03125 C 4.753906 29.03125 3.277344 28.417969 2.1875 27.332031 C 1.101562 26.242188 0.488281 24.765625 0.488281 23.222656 L 0.488281 5.804688 C 0.488281 4.265625 1.101562 2.789062 2.1875 1.699219 C 3.277344 0.613281 4.753906 0 6.292969 0 Z M 6.292969 0 " clip-rule="nonzero"/></clipPath><clipPath id="33773681f4"><rect x="0" width="98" y="0" height="30"/></clipPath></defs><g clip-path="url(#5e40f3d060)"><path fill="#ffffff" d="M 1.488281 0 L 98.019531 0 L 98.019531 29.03125 L 1.488281 29.03125 Z M 1.488281 0 " fill-opacity="1" fill-rule="nonzero"/><path fill="#eae1f2" d="M 1.488281 0 L 98.019531 0 L 98.019531 29.03125 L 1.488281 29.03125 Z M 1.488281 0 " fill-opacity="1" fill-rule="nonzero"/></g><g clip-path="url(#9ae607d1f4)"><g clip-path="url(#08588de172)"><g transform="matrix(1, 0, 0, 1, 1, 0.000000000000005692)"><g clip-path="url(#33773681f4)"><g clip-path="url(#2e9c0fb33e)"><g clip-path="url(#57d0ec4d82)"><path fill="#8055cc" d="M 0.488281 0 L 96.992188 0 L 96.992188 29.03125 L 0.488281 29.03125 Z M 0.488281 0 " fill-opacity="1" fill-rule="nonzero"/></g></g></g></g></g></g><g fill="#ffffff" fill-opacity="1"><g transform="translate(12.363658, 18.87097)"><g><path d="M 4.265625 -8.984375 C 5.171875 -8.984375 5.945312 -8.816406 6.59375 -8.484375 C 7.25 -8.160156 7.753906 -7.664062 8.109375 -7 C 8.460938 -6.332031 8.640625 -5.492188 8.640625 -4.484375 C 8.640625 -3.484375 8.460938 -2.644531 8.109375 -1.96875 C 7.753906 -1.300781 7.25 -0.804688 6.59375 -0.484375 C 5.945312 -0.160156 5.171875 0 4.265625 0 L 1.359375 0 L 1.359375 -8.984375 Z M 4.15625 -0.890625 C 4.90625 -0.890625 5.523438 -1.003906 6.015625 -1.234375 C 6.503906 -1.472656 6.875 -1.859375 7.125 -2.390625 C 7.382812 -2.921875 7.515625 -3.617188 7.515625 -4.484375 C 7.515625 -5.359375 7.382812 -6.054688 7.125 -6.578125 C 6.875 -7.109375 6.503906 -7.488281 6.015625 -7.71875 C 5.523438 -7.957031 4.90625 -8.078125 4.15625 -8.078125 L 2.40625 -8.078125 L 2.40625 -0.890625 Z M 4.15625 -0.890625 "/></g></g></g><g fill="#ffffff" fill-opacity="1"><g transform="translate(21.906845, 18.87097)"><g><path d="M 1.6875 -8.078125 C 1.46875 -8.078125 1.289062 -8.144531 1.15625 -8.28125 C 1.03125 -8.414062 0.96875 -8.582031 0.96875 -8.78125 C 0.96875 -8.988281 1.03125 -9.160156 1.15625 -9.296875 C 1.289062 -9.429688 1.46875 -9.5 1.6875 -9.5 C 1.894531 -9.5 2.066406 -9.429688 2.203125 -9.296875 C 2.335938 -9.160156 2.40625 -8.988281 2.40625 -8.78125 C 2.40625 -8.582031 2.335938 -8.414062 2.203125 -8.28125 C 2.066406 -8.144531 1.894531 -8.078125 1.6875 -8.078125 Z M 1.171875 0 L 1.171875 -6.78125 L 2.1875 -6.78125 L 2.1875 0 Z M 1.171875 0 "/></g></g></g><g fill="#ffffff" fill-opacity="1"><g transform="translate(25.266003, 18.87097)"><g><path d="M 4.28125 0 L 2.90625 0 L 0.328125 -6.78125 L 1.40625 -6.78125 L 3.546875 -1.140625 L 3.6875 -1.140625 L 5.796875 -6.78125 L 6.859375 -6.78125 Z M 4.28125 0 "/></g></g></g><g fill="#ffffff" fill-opacity="1"><g transform="translate(32.315915, 18.87097)"><g><path d="M 6.453125 -3.15625 L 1.796875 -3.15625 C 1.828125 -2.332031 2.023438 -1.726562 2.390625 -1.34375 C 2.753906 -0.957031 3.257812 -0.765625 3.90625 -0.765625 C 4.382812 -0.765625 4.769531 -0.847656 5.0625 -1.015625 C 5.363281 -1.191406 5.597656 -1.46875 5.765625 -1.84375 L 5.890625 -1.84375 L 6.546875 -1.453125 C 6.347656 -0.960938 6.03125 -0.578125 5.59375 -0.296875 C 5.164062 -0.015625 4.601562 0.125 3.90625 0.125 C 3.25 0.125 2.679688 0 2.203125 -0.25 C 1.734375 -0.507812 1.375 -0.898438 1.125 -1.421875 C 0.875 -1.953125 0.75 -2.609375 0.75 -3.390625 C 0.75 -4.148438 0.878906 -4.796875 1.140625 -5.328125 C 1.410156 -5.859375 1.773438 -6.253906 2.234375 -6.515625 C 2.703125 -6.773438 3.238281 -6.90625 3.84375 -6.90625 C 4.707031 -6.90625 5.382812 -6.660156 5.875 -6.171875 C 6.363281 -5.679688 6.609375 -4.953125 6.609375 -3.984375 C 6.609375 -3.609375 6.597656 -3.359375 6.578125 -3.234375 Z M 5.625 -3.984375 C 5.601562 -4.710938 5.441406 -5.238281 5.140625 -5.5625 C 4.835938 -5.894531 4.40625 -6.0625 3.84375 -6.0625 C 3.25 -6.0625 2.78125 -5.894531 2.4375 -5.5625 C 2.101562 -5.226562 1.898438 -4.703125 1.828125 -3.984375 Z M 5.625 -3.984375 "/></g></g></g><g fill="#ffffff" fill-opacity="1"><g transform="translate(39.537786, 18.87097)"><g/></g></g><g fill="#ffffff" fill-opacity="1"><g transform="translate(42.620592, 18.87097)"><g><path d="M 4.265625 -8.984375 C 5.171875 -8.984375 5.945312 -8.816406 6.59375 -8.484375 C 7.25 -8.160156 7.753906 -7.664062 8.109375 -7 C 8.460938 -6.332031 8.640625 -5.492188 8.640625 -4.484375 C 8.640625 -3.484375 8.460938 -2.644531 8.109375 -1.96875 C 7.753906 -1.300781 7.25 -0.804688 6.59375 -0.484375 C 5.945312 -0.160156 5.171875 0 4.265625 0 L 1.359375 0 L 1.359375 -8.984375 Z M 4.15625 -0.890625 C 4.90625 -0.890625 5.523438 -1.003906 6.015625 -1.234375 C 6.503906 -1.472656 6.875 -1.859375 7.125 -2.390625 C 7.382812 -2.921875 7.515625 -3.617188 7.515625 -4.484375 C 7.515625 -5.359375 7.382812 -6.054688 7.125 -6.578125 C 6.875 -7.109375 6.503906 -7.488281 6.015625 -7.71875 C 5.523438 -7.957031 4.90625 -8.078125 4.15625 -8.078125 L 2.40625 -8.078125 L 2.40625 -0.890625 Z M 4.15625 -0.890625 "/></g></g></g><g fill="#ffffff" fill-opacity="1"><g transform="translate(52.163779, 18.87097)"><g><path d="M 6.453125 -3.15625 L 1.796875 -3.15625 C 1.828125 -2.332031 2.023438 -1.726562 2.390625 -1.34375 C 2.753906 -0.957031 3.257812 -0.765625 3.90625 -0.765625 C 4.382812 -0.765625 4.769531 -0.847656 5.0625 -1.015625 C 5.363281 -1.191406 5.597656 -1.46875 5.765625 -1.84375 L 5.890625 -1.84375 L 6.546875 -1.453125 C 6.347656 -0.960938 6.03125 -0.578125 5.59375 -0.296875 C 5.164062 -0.015625 4.601562 0.125 3.90625 0.125 C 3.25 0.125 2.679688 0 2.203125 -0.25 C 1.734375 -0.507812 1.375 -0.898438 1.125 -1.421875 C 0.875 -1.953125 0.75 -2.609375 0.75 -3.390625 C 0.75 -4.148438 0.878906 -4.796875 1.140625 -5.328125 C 1.410156 -5.859375 1.773438 -6.253906 2.234375 -6.515625 C 2.703125 -6.773438 3.238281 -6.90625 3.84375 -6.90625 C 4.707031 -6.90625 5.382812 -6.660156 5.875 -6.171875 C 6.363281 -5.679688 6.609375 -4.953125 6.609375 -3.984375 C 6.609375 -3.609375 6.597656 -3.359375 6.578125 -3.234375 Z M 5.625 -3.984375 C 5.601562 -4.710938 5.441406 -5.238281 5.140625 -5.5625 C 4.835938 -5.894531 4.40625 -6.0625 3.84375 -6.0625 C 3.25 -6.0625 2.78125 -5.894531 2.4375 -5.5625 C 2.101562 -5.226562 1.898438 -4.703125 1.828125 -3.984375 Z M 5.625 -3.984375 "/></g></g></g><g fill="#ffffff" fill-opacity="1"><g transform="translate(59.385651, 18.87097)"><g><path d="M 6.453125 -3.15625 L 1.796875 -3.15625 C 1.828125 -2.332031 2.023438 -1.726562 2.390625 -1.34375 C 2.753906 -0.957031 3.257812 -0.765625 3.90625 -0.765625 C 4.382812 -0.765625 4.769531 -0.847656 5.0625 -1.015625 C 5.363281 -1.191406 5.597656 -1.46875 5.765625 -1.84375 L 5.890625 -1.84375 L 6.546875 -1.453125 C 6.347656 -0.960938 6.03125 -0.578125 5.59375 -0.296875 C 5.164062 -0.015625 4.601562 0.125 3.90625 0.125 C 3.25 0.125 2.679688 0 2.203125 -0.25 C 1.734375 -0.507812 1.375 -0.898438 1.125 -1.421875 C 0.875 -1.953125 0.75 -2.609375 0.75 -3.390625 C 0.75 -4.148438 0.878906 -4.796875 1.140625 -5.328125 C 1.410156 -5.859375 1.773438 -6.253906 2.234375 -6.515625 C 2.703125 -6.773438 3.238281 -6.90625 3.84375 -6.90625 C 4.707031 -6.90625 5.382812 -6.660156 5.875 -6.171875 C 6.363281 -5.679688 6.609375 -4.953125 6.609375 -3.984375 C 6.609375 -3.609375 6.597656 -3.359375 6.578125 -3.234375 Z M 5.625 -3.984375 C 5.601562 -4.710938 5.441406 -5.238281 5.140625 -5.5625 C 4.835938 -5.894531 4.40625 -6.0625 3.84375 -6.0625 C 3.25 -6.0625 2.78125 -5.894531 2.4375 -5.5625 C 2.101562 -5.226562 1.898438 -4.703125 1.828125 -3.984375 Z M 5.625 -3.984375 "/></g></g></g><g fill="#ffffff" fill-opacity="1"><g transform="translate(66.607523, 18.87097)"><g><path d="M 1.171875 2.75 L 1.171875 -6.78125 L 2.1875 -6.78125 L 2.1875 -5.765625 L 2.3125 -5.734375 C 2.8125 -6.515625 3.550781 -6.90625 4.53125 -6.90625 C 5.09375 -6.90625 5.582031 -6.773438 6 -6.515625 C 6.425781 -6.253906 6.753906 -5.859375 6.984375 -5.328125 C 7.222656 -4.804688 7.34375 -4.160156 7.34375 -3.390625 C 7.34375 -2.609375 7.21875 -1.957031 6.96875 -1.4375 C 6.726562 -0.914062 6.390625 -0.523438 5.953125 -0.265625 C 5.515625 -0.00390625 5.015625 0.125 4.453125 0.125 C 3.992188 0.125 3.585938 0.046875 3.234375 -0.109375 C 2.878906 -0.265625 2.570312 -0.523438 2.3125 -0.890625 L 2.1875 -0.875 L 2.1875 2.75 Z M 4.234375 -0.765625 C 5.609375 -0.765625 6.296875 -1.640625 6.296875 -3.390625 C 6.296875 -5.128906 5.609375 -6 4.234375 -6 C 3.828125 -6 3.46875 -5.90625 3.15625 -5.71875 C 2.851562 -5.539062 2.613281 -5.253906 2.4375 -4.859375 C 2.269531 -4.472656 2.1875 -3.984375 2.1875 -3.390625 C 2.1875 -2.796875 2.269531 -2.300781 2.4375 -1.90625 C 2.613281 -1.519531 2.851562 -1.234375 3.15625 -1.046875 C 3.46875 -0.859375 3.828125 -0.765625 4.234375 -0.765625 Z M 4.234375 -0.765625 "/></g></g></g><g fill="#ffffff" fill-opacity="1"><g transform="translate(74.689141, 18.87097)"><g><path d="M 6.453125 -3.15625 L 1.796875 -3.15625 C 1.828125 -2.332031 2.023438 -1.726562 2.390625 -1.34375 C 2.753906 -0.957031 3.257812 -0.765625 3.90625 -0.765625 C 4.382812 -0.765625 4.769531 -0.847656 5.0625 -1.015625 C 5.363281 -1.191406 5.597656 -1.46875 5.765625 -1.84375 L 5.890625 -1.84375 L 6.546875 -1.453125 C 6.347656 -0.960938 6.03125 -0.578125 5.59375 -0.296875 C 5.164062 -0.015625 4.601562 0.125 3.90625 0.125 C 3.25 0.125 2.679688 0 2.203125 -0.25 C 1.734375 -0.507812 1.375 -0.898438 1.125 -1.421875 C 0.875 -1.953125 0.75 -2.609375 0.75 -3.390625 C 0.75 -4.148438 0.878906 -4.796875 1.140625 -5.328125 C 1.410156 -5.859375 1.773438 -6.253906 2.234375 -6.515625 C 2.703125 -6.773438 3.238281 -6.90625 3.84375 -6.90625 C 4.707031 -6.90625 5.382812 -6.660156 5.875 -6.171875 C 6.363281 -5.679688 6.609375 -4.953125 6.609375 -3.984375 C 6.609375 -3.609375 6.597656 -3.359375 6.578125 -3.234375 Z M 5.625 -3.984375 C 5.601562 -4.710938 5.441406 -5.238281 5.140625 -5.5625 C 4.835938 -5.894531 4.40625 -6.0625 3.84375 -6.0625 C 3.25 -6.0625 2.78125 -5.894531 2.4375 -5.5625 C 2.101562 -5.226562 1.898438 -4.703125 1.828125 -3.984375 Z M 5.625 -3.984375 "/></g></g></g><g fill="#ffffff" fill-opacity="1"><g transform="translate(81.911012, 18.87097)"><g><path d="M 1.171875 0 L 1.171875 -6.78125 L 2.125 -6.78125 L 2.125 -5.71875 L 2.265625 -5.6875 C 2.578125 -6.445312 3.171875 -6.828125 4.046875 -6.828125 C 4.503906 -6.828125 4.847656 -6.742188 5.078125 -6.578125 L 4.828125 -5.734375 L 4.703125 -5.71875 C 4.441406 -5.84375 4.160156 -5.90625 3.859375 -5.90625 C 3.316406 -5.90625 2.898438 -5.703125 2.609375 -5.296875 C 2.328125 -4.890625 2.1875 -4.234375 2.1875 -3.328125 L 2.1875 0 Z M 1.171875 0 "/></g></g></g></svg>