<svg xmlns="http://www.w3.org/2000/svg" xmlns:xlink="http://www.w3.org/1999/xlink" width="133" zoomAndPan="magnify" viewBox="0 0 99.75 30.000001" height="40" preserveAspectRatio="xMidYMid meet" version="1.0"><defs><g/><clipPath id="7aeb3d27bf"><path d="M 1.488281 0 L 98.019531 0 L 98.019531 29.03125 L 1.488281 29.03125 Z M 1.488281 0 " clip-rule="nonzero"/></clipPath><clipPath id="3c6833c985"><path d="M 1.488281 0 L 98.019531 0 L 98.019531 29.03125 L 1.488281 29.03125 Z M 1.488281 0 " clip-rule="nonzero"/></clipPath><clipPath id="6b8a583762"><path d="M 7.292969 0 L 92.214844 0 C 93.753906 0 95.230469 0.613281 96.320312 1.699219 C 97.410156 2.789062 98.019531 4.265625 98.019531 5.804688 L 98.019531 23.222656 C 98.019531 24.765625 97.410156 26.242188 96.320312 27.332031 C 95.230469 28.417969 93.753906 29.03125 92.214844 29.03125 L 7.292969 29.03125 C 5.753906 29.03125 4.277344 28.417969 3.1875 27.332031 C 2.101562 26.242188 1.488281 24.765625 1.488281 23.222656 L 1.488281 5.804688 C 1.488281 4.265625 2.101562 2.789062 3.1875 1.699219 C 4.277344 0.613281 5.753906 0 7.292969 0 Z M 7.292969 0 " clip-rule="nonzero"/></clipPath><clipPath id="87f03fdb41"><path d="M 0.488281 0 L 97 0 L 97 29.03125 L 0.488281 29.03125 Z M 0.488281 0 " clip-rule="nonzero"/></clipPath><clipPath id="e99e686520"><path d="M 6.292969 0 L 91.214844 0 C 92.753906 0 94.230469 0.613281 95.320312 1.699219 C 96.410156 2.789062 97.019531 4.265625 97.019531 5.804688 L 97.019531 23.222656 C 97.019531 24.765625 96.410156 26.242188 95.320312 27.332031 C 94.230469 28.417969 92.753906 29.03125 91.214844 29.03125 L 6.292969 29.03125 C 4.753906 29.03125 3.277344 28.417969 2.1875 27.332031 C 1.101562 26.242188 0.488281 24.765625 0.488281 23.222656 L 0.488281 5.804688 C 0.488281 4.265625 1.101562 2.789062 2.1875 1.699219 C 3.277344 0.613281 4.753906 0 6.292969 0 Z M 6.292969 0 " clip-rule="nonzero"/></clipPath><clipPath id="5abf29d753"><rect x="0" width="98" y="0" height="30"/></clipPath></defs><g clip-path="url(#7aeb3d27bf)"><path fill="#ffffff" d="M 1.488281 0 L 98.019531 0 L 98.019531 29.03125 L 1.488281 29.03125 Z M 1.488281 0 " fill-opacity="1" fill-rule="nonzero"/><path fill="#eae1f2" d="M 1.488281 0 L 98.019531 0 L 98.019531 29.03125 L 1.488281 29.03125 Z M 1.488281 0 " fill-opacity="1" fill-rule="nonzero"/></g><g clip-path="url(#3c6833c985)"><g clip-path="url(#6b8a583762)"><g transform="matrix(1, 0, 0, 1, 1, 0.000000000000005692)"><g clip-path="url(#5abf29d753)"><g clip-path="url(#87f03fdb41)"><g clip-path="url(#e99e686520)"><path fill="#8055cc" d="M 0.488281 0 L 96.992188 0 L 96.992188 29.03125 L 0.488281 29.03125 Z M 0.488281 0 " fill-opacity="1" fill-rule="nonzero"/></g></g></g></g></g></g><g fill="#ffffff" fill-opacity="1"><g transform="translate(20.381551, 18.87097)"><g><path d="M 2.40625 -4.234375 L 2.40625 -0.875 L 6.984375 -0.875 L 6.984375 0 L 1.359375 0 L 1.359375 -8.984375 L 6.890625 -8.984375 L 6.890625 -8.109375 L 2.40625 -8.109375 L 2.40625 -5.109375 L 6.359375 -5.109375 L 6.359375 -4.234375 Z M 2.40625 -4.234375 "/></g></g></g><g fill="#ffffff" fill-opacity="1"><g transform="translate(27.96575, 18.87097)"><g><path d="M 1.171875 0 L 1.171875 -6.78125 L 2.125 -6.78125 L 2.125 -5.765625 L 2.265625 -5.75 C 2.492188 -6.125 2.769531 -6.410156 3.09375 -6.609375 C 3.414062 -6.804688 3.804688 -6.90625 4.265625 -6.90625 C 4.785156 -6.90625 5.1875 -6.804688 5.46875 -6.609375 C 5.757812 -6.410156 5.984375 -6.085938 6.140625 -5.640625 L 6.28125 -5.640625 C 6.507812 -6.054688 6.796875 -6.367188 7.140625 -6.578125 C 7.484375 -6.796875 7.90625 -6.90625 8.40625 -6.90625 C 9.101562 -6.90625 9.617188 -6.710938 9.953125 -6.328125 C 10.296875 -5.953125 10.46875 -5.382812 10.46875 -4.625 L 10.46875 0 L 9.46875 0 L 9.46875 -4.59375 C 9.46875 -5.082031 9.363281 -5.441406 9.15625 -5.671875 C 8.945312 -5.910156 8.613281 -6.03125 8.15625 -6.03125 C 7.625 -6.03125 7.1875 -5.832031 6.84375 -5.4375 C 6.5 -5.050781 6.328125 -4.40625 6.328125 -3.5 L 6.328125 0 L 5.328125 0 L 5.328125 -4.59375 C 5.328125 -5.082031 5.222656 -5.441406 5.015625 -5.671875 C 4.804688 -5.910156 4.472656 -6.03125 4.015625 -6.03125 C 3.472656 -6.03125 3.03125 -5.835938 2.6875 -5.453125 C 2.351562 -5.078125 2.1875 -4.460938 2.1875 -3.609375 L 2.1875 0 Z M 1.171875 0 "/></g></g></g><g fill="#ffffff" fill-opacity="1"><g transform="translate(39.510918, 18.87097)"><g><path d="M 2.796875 0.125 C 2.128906 0.125 1.609375 -0.046875 1.234375 -0.390625 C 0.859375 -0.742188 0.671875 -1.242188 0.671875 -1.890625 C 0.671875 -2.285156 0.753906 -2.617188 0.921875 -2.890625 C 1.085938 -3.171875 1.34375 -3.398438 1.6875 -3.578125 C 2.039062 -3.753906 2.492188 -3.890625 3.046875 -3.984375 C 3.546875 -4.066406 3.921875 -4.15625 4.171875 -4.25 C 4.429688 -4.351562 4.601562 -4.46875 4.6875 -4.59375 C 4.78125 -4.726562 4.828125 -4.890625 4.828125 -5.078125 C 4.828125 -5.390625 4.71875 -5.625 4.5 -5.78125 C 4.289062 -5.945312 3.953125 -6.03125 3.484375 -6.03125 C 3.046875 -6.03125 2.671875 -5.941406 2.359375 -5.765625 C 2.046875 -5.597656 1.757812 -5.347656 1.5 -5.015625 L 1.375 -5.015625 L 0.890625 -5.71875 C 1.171875 -6.082031 1.53125 -6.367188 1.96875 -6.578125 C 2.414062 -6.796875 2.921875 -6.90625 3.484375 -6.90625 C 4.285156 -6.90625 4.875 -6.726562 5.25 -6.375 C 5.632812 -6.03125 5.828125 -5.546875 5.828125 -4.921875 L 5.828125 -1.328125 C 5.828125 -0.953125 5.984375 -0.765625 6.296875 -0.765625 C 6.410156 -0.765625 6.515625 -0.785156 6.609375 -0.828125 L 6.6875 -0.796875 L 6.8125 -0.109375 C 6.738281 -0.0546875 6.640625 -0.0195312 6.515625 0 C 6.398438 0.03125 6.273438 0.046875 6.140625 0.046875 C 5.773438 0.046875 5.492188 -0.03125 5.296875 -0.1875 C 5.109375 -0.351562 4.988281 -0.597656 4.9375 -0.921875 L 4.8125 -0.9375 C 4.613281 -0.582031 4.347656 -0.316406 4.015625 -0.140625 C 3.691406 0.0351562 3.285156 0.125 2.796875 0.125 Z M 3.015625 -0.671875 C 3.390625 -0.671875 3.710938 -0.753906 3.984375 -0.921875 C 4.265625 -1.097656 4.476562 -1.34375 4.625 -1.65625 C 4.78125 -1.976562 4.859375 -2.34375 4.859375 -2.75 L 4.859375 -3.625 L 4.734375 -3.640625 C 4.585938 -3.535156 4.40625 -3.445312 4.1875 -3.375 C 3.96875 -3.300781 3.664062 -3.238281 3.28125 -3.1875 C 2.882812 -3.125 2.566406 -3.035156 2.328125 -2.921875 C 2.097656 -2.816406 1.929688 -2.679688 1.828125 -2.515625 C 1.734375 -2.347656 1.6875 -2.140625 1.6875 -1.890625 C 1.6875 -1.492188 1.800781 -1.191406 2.03125 -0.984375 C 2.269531 -0.773438 2.597656 -0.671875 3.015625 -0.671875 Z M 3.015625 -0.671875 "/></g></g></g><g fill="#ffffff" fill-opacity="1"><g transform="translate(46.517859, 18.87097)"><g><path d="M 1.6875 -8.078125 C 1.46875 -8.078125 1.289062 -8.144531 1.15625 -8.28125 C 1.03125 -8.414062 0.96875 -8.582031 0.96875 -8.78125 C 0.96875 -8.988281 1.03125 -9.160156 1.15625 -9.296875 C 1.289062 -9.429688 1.46875 -9.5 1.6875 -9.5 C 1.894531 -9.5 2.066406 -9.429688 2.203125 -9.296875 C 2.335938 -9.160156 2.40625 -8.988281 2.40625 -8.78125 C 2.40625 -8.582031 2.335938 -8.414062 2.203125 -8.28125 C 2.066406 -8.144531 1.894531 -8.078125 1.6875 -8.078125 Z M 1.171875 0 L 1.171875 -6.78125 L 2.1875 -6.78125 L 2.1875 0 Z M 1.171875 0 "/></g></g></g><g fill="#ffffff" fill-opacity="1"><g transform="translate(49.877017, 18.87097)"><g><path d="M 2.703125 0.125 C 2.222656 0.125 1.84375 -0.0078125 1.5625 -0.28125 C 1.289062 -0.550781 1.15625 -0.957031 1.15625 -1.5 L 1.15625 -9.5 L 2.15625 -9.5 L 2.15625 -1.5625 C 2.15625 -1.28125 2.207031 -1.078125 2.3125 -0.953125 C 2.425781 -0.828125 2.597656 -0.765625 2.828125 -0.765625 C 2.960938 -0.765625 3.101562 -0.785156 3.25 -0.828125 L 3.328125 -0.8125 L 3.453125 -0.03125 C 3.378906 0.0195312 3.269531 0.0546875 3.125 0.078125 C 2.988281 0.109375 2.847656 0.125 2.703125 0.125 Z M 2.703125 0.125 "/></g></g></g><g fill="#ffffff" fill-opacity="1"><g transform="translate(53.561646, 18.87097)"><g/></g></g><g fill="#ffffff" fill-opacity="1"><g transform="translate(56.644451, 18.87097)"><g><path d="M 2.328125 0 L 1.359375 0 L 1.359375 -8.984375 L 2.921875 -8.984375 L 5.640625 -1.375 L 5.765625 -1.375 L 8.5 -8.984375 L 10 -8.984375 L 10 0 L 9 0 L 9 -7.328125 L 8.84375 -7.359375 L 6.203125 0 L 5.140625 0 L 2.484375 -7.359375 L 2.328125 -7.328125 Z M 2.328125 0 "/></g></g></g><g fill="#ffffff" fill-opacity="1"><g transform="translate(68.011535, 18.87097)"><g><path d="M 6.453125 -3.15625 L 1.796875 -3.15625 C 1.828125 -2.332031 2.023438 -1.726562 2.390625 -1.34375 C 2.753906 -0.957031 3.257812 -0.765625 3.90625 -0.765625 C 4.382812 -0.765625 4.769531 -0.847656 5.0625 -1.015625 C 5.363281 -1.191406 5.597656 -1.46875 5.765625 -1.84375 L 5.890625 -1.84375 L 6.546875 -1.453125 C 6.347656 -0.960938 6.03125 -0.578125 5.59375 -0.296875 C 5.164062 -0.015625 4.601562 0.125 3.90625 0.125 C 3.25 0.125 2.679688 0 2.203125 -0.25 C 1.734375 -0.507812 1.375 -0.898438 1.125 -1.421875 C 0.875 -1.953125 0.75 -2.609375 0.75 -3.390625 C 0.75 -4.148438 0.878906 -4.796875 1.140625 -5.328125 C 1.410156 -5.859375 1.773438 -6.253906 2.234375 -6.515625 C 2.703125 -6.773438 3.238281 -6.90625 3.84375 -6.90625 C 4.707031 -6.90625 5.382812 -6.660156 5.875 -6.171875 C 6.363281 -5.679688 6.609375 -4.953125 6.609375 -3.984375 C 6.609375 -3.609375 6.597656 -3.359375 6.578125 -3.234375 Z M 5.625 -3.984375 C 5.601562 -4.710938 5.441406 -5.238281 5.140625 -5.5625 C 4.835938 -5.894531 4.40625 -6.0625 3.84375 -6.0625 C 3.25 -6.0625 2.78125 -5.894531 2.4375 -5.5625 C 2.101562 -5.226562 1.898438 -4.703125 1.828125 -3.984375 Z M 5.625 -3.984375 "/></g></g></g><g fill="#ffffff" fill-opacity="1"><g transform="translate(75.233407, 18.87097)"><g><path d="M 2.453125 -2.984375 L 1.421875 -2.984375 L 1.421875 -8.984375 L 2.453125 -8.984375 Z M 1.9375 0.0625 C 1.695312 0.0625 1.507812 0 1.375 -0.125 C 1.238281 -0.257812 1.171875 -0.4375 1.171875 -0.65625 C 1.171875 -0.863281 1.238281 -1.035156 1.375 -1.171875 C 1.507812 -1.316406 1.695312 -1.390625 1.9375 -1.390625 C 2.175781 -1.390625 2.363281 -1.320312 2.5 -1.1875 C 2.632812 -1.0625 2.703125 -0.890625 2.703125 -0.671875 C 2.703125 -0.453125 2.628906 -0.273438 2.484375 -0.140625 C 2.347656 -0.00390625 2.164062 0.0625 1.9375 0.0625 Z M 1.9375 0.0625 "/></g></g></g></svg>