<svg xmlns="http://www.w3.org/2000/svg" xmlns:xlink="http://www.w3.org/1999/xlink" width="40" zoomAndPan="magnify" viewBox="0 0 30 46.499999" height="62" preserveAspectRatio="xMidYMid meet" version="1.0"><defs><clipPath id="677ae9fe09"><path d="M 0.160156 0 L 29.839844 0 L 29.839844 46.003906 L 0.160156 46.003906 Z M 0.160156 0 " clip-rule="nonzero"/></clipPath><clipPath id="d0ea18acda"><path d="M 0.554688 0 L 29.496094 0 L 29.496094 45.261719 L 0.554688 45.261719 Z M 0.554688 0 " clip-rule="nonzero"/></clipPath></defs><g clip-path="url(#677ae9fe09)"><path fill="#ffffff" d="M 0.160156 0 L 29.839844 0 L 29.839844 46.003906 L 0.160156 46.003906 Z M 0.160156 0 " fill-opacity="1" fill-rule="nonzero"/><path fill="#eae1f2" d="M 0.160156 0 L 29.839844 0 L 29.839844 46.003906 L 0.160156 46.003906 Z M 0.160156 0 " fill-opacity="1" fill-rule="nonzero"/></g><g clip-path="url(#d0ea18acda)"><path fill="#5e17eb" d="M 24.28125 0.0078125 L 5.714844 0.0078125 C 2.867188 0.0078125 0.554688 2.320312 0.554688 5.167969 L 0.554688 40.234375 C 0.554688 43.082031 2.867188 45.394531 5.714844 45.394531 L 24.28125 45.394531 C 27.125 45.394531 29.4375 43.082031 29.4375 40.234375 L 29.4375 5.167969 C 29.4375 2.320312 27.125 0.0078125 24.28125 0.0078125 Z M 14.996094 41.523438 C 13.714844 41.523438 12.675781 40.488281 12.675781 39.203125 C 12.675781 37.921875 13.714844 36.882812 14.996094 36.882812 C 16.28125 36.882812 17.316406 37.921875 17.316406 39.203125 C 17.316406 40.488281 16.28125 41.523438 14.996094 41.523438 Z M 25.3125 35.078125 L 4.683594 35.078125 L 4.683594 6.199219 L 25.3125 6.199219 Z M 25.3125 35.078125 " fill-opacity="1" fill-rule="nonzero"/></g></svg>