<svg xmlns="http://www.w3.org/2000/svg" xmlns:xlink="http://www.w3.org/1999/xlink" width="133" zoomAndPan="magnify" viewBox="0 0 99.75 30.000001" height="40" preserveAspectRatio="xMidYMid meet" version="1.0"><defs><g/><clipPath id="086a1765e6"><path d="M 1.488281 0 L 98.019531 0 L 98.019531 29.03125 L 1.488281 29.03125 Z M 1.488281 0 " clip-rule="nonzero"/></clipPath><clipPath id="ec4a7751bd"><path d="M 1.488281 0 L 98.019531 0 L 98.019531 29.03125 L 1.488281 29.03125 Z M 1.488281 0 " clip-rule="nonzero"/></clipPath><clipPath id="202f09ea98"><path d="M 7.292969 0 L 92.214844 0 C 93.753906 0 95.230469 0.613281 96.320312 1.699219 C 97.410156 2.789062 98.019531 4.265625 98.019531 5.804688 L 98.019531 23.222656 C 98.019531 24.765625 97.410156 26.242188 96.320312 27.332031 C 95.230469 28.417969 93.753906 29.03125 92.214844 29.03125 L 7.292969 29.03125 C 5.753906 29.03125 4.277344 28.417969 3.1875 27.332031 C 2.101562 26.242188 1.488281 24.765625 1.488281 23.222656 L 1.488281 5.804688 C 1.488281 4.265625 2.101562 2.789062 3.1875 1.699219 C 4.277344 0.613281 5.753906 0 7.292969 0 Z M 7.292969 0 " clip-rule="nonzero"/></clipPath><clipPath id="572dd6f941"><path d="M 0.488281 0 L 97 0 L 97 29.03125 L 0.488281 29.03125 Z M 0.488281 0 " clip-rule="nonzero"/></clipPath><clipPath id="55219a10d8"><path d="M 6.292969 0 L 91.214844 0 C 92.753906 0 94.230469 0.613281 95.320312 1.699219 C 96.410156 2.789062 97.019531 4.265625 97.019531 5.804688 L 97.019531 23.222656 C 97.019531 24.765625 96.410156 26.242188 95.320312 27.332031 C 94.230469 28.417969 92.753906 29.03125 91.214844 29.03125 L 6.292969 29.03125 C 4.753906 29.03125 3.277344 28.417969 2.1875 27.332031 C 1.101562 26.242188 0.488281 24.765625 0.488281 23.222656 L 0.488281 5.804688 C 0.488281 4.265625 1.101562 2.789062 2.1875 1.699219 C 3.277344 0.613281 4.753906 0 6.292969 0 Z M 6.292969 0 " clip-rule="nonzero"/></clipPath><clipPath id="e01ee50a9d"><rect x="0" width="98" y="0" height="30"/></clipPath></defs><g clip-path="url(#086a1765e6)"><path fill="#ffffff" d="M 1.488281 0 L 98.019531 0 L 98.019531 29.03125 L 1.488281 29.03125 Z M 1.488281 0 " fill-opacity="1" fill-rule="nonzero"/><path fill="#eae1f2" d="M 1.488281 0 L 98.019531 0 L 98.019531 29.03125 L 1.488281 29.03125 Z M 1.488281 0 " fill-opacity="1" fill-rule="nonzero"/></g><g clip-path="url(#ec4a7751bd)"><g clip-path="url(#202f09ea98)"><g transform="matrix(1, 0, 0, 1, 1, 0.000000000000005692)"><g clip-path="url(#e01ee50a9d)"><g clip-path="url(#572dd6f941)"><g clip-path="url(#55219a10d8)"><path fill="#8055cc" d="M 0.488281 0 L 96.992188 0 L 96.992188 29.03125 L 0.488281 29.03125 Z M 0.488281 0 " fill-opacity="1" fill-rule="nonzero"/></g></g></g></g></g></g><g fill="#ffffff" fill-opacity="1"><g transform="translate(17.274192, 18.87097)"><g><path d="M 1.359375 0 L 1.359375 -8.984375 L 4.625 -8.984375 C 5.21875 -8.984375 5.71875 -8.882812 6.125 -8.6875 C 6.539062 -8.488281 6.847656 -8.207031 7.046875 -7.84375 C 7.253906 -7.476562 7.359375 -7.046875 7.359375 -6.546875 C 7.359375 -5.992188 7.21875 -5.535156 6.9375 -5.171875 C 6.664062 -4.804688 6.234375 -4.535156 5.640625 -4.359375 L 5.640625 -4.234375 C 5.929688 -4.117188 6.171875 -3.9375 6.359375 -3.6875 C 6.546875 -3.445312 6.710938 -3.082031 6.859375 -2.59375 L 7.703125 0 L 6.609375 0 L 5.71875 -2.75 C 5.601562 -3.070312 5.476562 -3.320312 5.34375 -3.5 C 5.207031 -3.6875 5.03125 -3.820312 4.8125 -3.90625 C 4.601562 -3.988281 4.332031 -4.03125 4 -4.03125 L 2.40625 -4.03125 L 2.40625 0 Z M 4.59375 -4.921875 C 5.15625 -4.921875 5.570312 -5.050781 5.84375 -5.3125 C 6.125 -5.570312 6.265625 -5.96875 6.265625 -6.5 C 6.265625 -7.03125 6.125 -7.425781 5.84375 -7.6875 C 5.570312 -7.945312 5.15625 -8.078125 4.59375 -8.078125 L 2.40625 -8.078125 L 2.40625 -4.921875 Z M 4.59375 -4.921875 "/></g></g></g><g fill="#ffffff" fill-opacity="1"><g transform="translate(25.411063, 18.87097)"><g><path d="M 6.453125 -3.15625 L 1.796875 -3.15625 C 1.828125 -2.332031 2.023438 -1.726562 2.390625 -1.34375 C 2.753906 -0.957031 3.257812 -0.765625 3.90625 -0.765625 C 4.382812 -0.765625 4.769531 -0.847656 5.0625 -1.015625 C 5.363281 -1.191406 5.597656 -1.46875 5.765625 -1.84375 L 5.890625 -1.84375 L 6.546875 -1.453125 C 6.347656 -0.960938 6.03125 -0.578125 5.59375 -0.296875 C 5.164062 -0.015625 4.601562 0.125 3.90625 0.125 C 3.25 0.125 2.679688 0 2.203125 -0.25 C 1.734375 -0.507812 1.375 -0.898438 1.125 -1.421875 C 0.875 -1.953125 0.75 -2.609375 0.75 -3.390625 C 0.75 -4.148438 0.878906 -4.796875 1.140625 -5.328125 C 1.410156 -5.859375 1.773438 -6.253906 2.234375 -6.515625 C 2.703125 -6.773438 3.238281 -6.90625 3.84375 -6.90625 C 4.707031 -6.90625 5.382812 -6.660156 5.875 -6.171875 C 6.363281 -5.679688 6.609375 -4.953125 6.609375 -3.984375 C 6.609375 -3.609375 6.597656 -3.359375 6.578125 -3.234375 Z M 5.625 -3.984375 C 5.601562 -4.710938 5.441406 -5.238281 5.140625 -5.5625 C 4.835938 -5.894531 4.40625 -6.0625 3.84375 -6.0625 C 3.25 -6.0625 2.78125 -5.894531 2.4375 -5.5625 C 2.101562 -5.226562 1.898438 -4.703125 1.828125 -3.984375 Z M 5.625 -3.984375 "/></g></g></g><g fill="#ffffff" fill-opacity="1"><g transform="translate(32.632934, 18.87097)"><g><path d="M 2.796875 0.125 C 2.128906 0.125 1.609375 -0.046875 1.234375 -0.390625 C 0.859375 -0.742188 0.671875 -1.242188 0.671875 -1.890625 C 0.671875 -2.285156 0.753906 -2.617188 0.921875 -2.890625 C 1.085938 -3.171875 1.34375 -3.398438 1.6875 -3.578125 C 2.039062 -3.753906 2.492188 -3.890625 3.046875 -3.984375 C 3.546875 -4.066406 3.921875 -4.15625 4.171875 -4.25 C 4.429688 -4.351562 4.601562 -4.46875 4.6875 -4.59375 C 4.78125 -4.726562 4.828125 -4.890625 4.828125 -5.078125 C 4.828125 -5.390625 4.71875 -5.625 4.5 -5.78125 C 4.289062 -5.945312 3.953125 -6.03125 3.484375 -6.03125 C 3.046875 -6.03125 2.671875 -5.941406 2.359375 -5.765625 C 2.046875 -5.597656 1.757812 -5.347656 1.5 -5.015625 L 1.375 -5.015625 L 0.890625 -5.71875 C 1.171875 -6.082031 1.53125 -6.367188 1.96875 -6.578125 C 2.414062 -6.796875 2.921875 -6.90625 3.484375 -6.90625 C 4.285156 -6.90625 4.875 -6.726562 5.25 -6.375 C 5.632812 -6.03125 5.828125 -5.546875 5.828125 -4.921875 L 5.828125 -1.328125 C 5.828125 -0.953125 5.984375 -0.765625 6.296875 -0.765625 C 6.410156 -0.765625 6.515625 -0.785156 6.609375 -0.828125 L 6.6875 -0.796875 L 6.8125 -0.109375 C 6.738281 -0.0546875 6.640625 -0.0195312 6.515625 0 C 6.398438 0.03125 6.273438 0.046875 6.140625 0.046875 C 5.773438 0.046875 5.492188 -0.03125 5.296875 -0.1875 C 5.109375 -0.351562 4.988281 -0.597656 4.9375 -0.921875 L 4.8125 -0.9375 C 4.613281 -0.582031 4.347656 -0.316406 4.015625 -0.140625 C 3.691406 0.0351562 3.285156 0.125 2.796875 0.125 Z M 3.015625 -0.671875 C 3.390625 -0.671875 3.710938 -0.753906 3.984375 -0.921875 C 4.265625 -1.097656 4.476562 -1.34375 4.625 -1.65625 C 4.78125 -1.976562 4.859375 -2.34375 4.859375 -2.75 L 4.859375 -3.625 L 4.734375 -3.640625 C 4.585938 -3.535156 4.40625 -3.445312 4.1875 -3.375 C 3.96875 -3.300781 3.664062 -3.238281 3.28125 -3.1875 C 2.882812 -3.125 2.566406 -3.035156 2.328125 -2.921875 C 2.097656 -2.816406 1.929688 -2.679688 1.828125 -2.515625 C 1.734375 -2.347656 1.6875 -2.140625 1.6875 -1.890625 C 1.6875 -1.492188 1.800781 -1.191406 2.03125 -0.984375 C 2.269531 -0.773438 2.597656 -0.671875 3.015625 -0.671875 Z M 3.015625 -0.671875 "/></g></g></g><g fill="#ffffff" fill-opacity="1"><g transform="translate(39.639875, 18.87097)"><g><path d="M 3.515625 0.125 C 2.972656 0.125 2.492188 -0.00390625 2.078125 -0.265625 C 1.660156 -0.523438 1.332031 -0.914062 1.09375 -1.4375 C 0.863281 -1.957031 0.75 -2.609375 0.75 -3.390625 C 0.75 -4.160156 0.867188 -4.804688 1.109375 -5.328125 C 1.359375 -5.859375 1.695312 -6.253906 2.125 -6.515625 C 2.5625 -6.773438 3.0625 -6.90625 3.625 -6.90625 C 4.082031 -6.90625 4.488281 -6.816406 4.84375 -6.640625 C 5.207031 -6.472656 5.515625 -6.195312 5.765625 -5.8125 L 5.90625 -5.828125 L 5.90625 -9.5 L 6.90625 -9.5 L 6.90625 0 L 5.90625 0 L 5.90625 -0.984375 L 5.765625 -1.015625 C 5.546875 -0.679688 5.25 -0.40625 4.875 -0.1875 C 4.5 0.0195312 4.046875 0.125 3.515625 0.125 Z M 3.828125 -0.765625 C 4.453125 -0.765625 4.953125 -0.976562 5.328125 -1.40625 C 5.710938 -1.84375 5.90625 -2.503906 5.90625 -3.390625 C 5.90625 -4.265625 5.710938 -4.914062 5.328125 -5.34375 C 4.953125 -5.78125 4.453125 -6 3.828125 -6 C 3.171875 -6 2.664062 -5.785156 2.3125 -5.359375 C 1.96875 -4.941406 1.796875 -4.285156 1.796875 -3.390625 C 1.796875 -1.640625 2.472656 -0.765625 3.828125 -0.765625 Z M 3.828125 -0.765625 "/></g></g></g><g fill="#ffffff" fill-opacity="1"><g transform="translate(47.72764, 18.87097)"><g/></g></g><g fill="#ffffff" fill-opacity="1"><g transform="translate(50.810446, 18.87097)"><g><path d="M 2.328125 0 L 1.359375 0 L 1.359375 -8.984375 L 2.921875 -8.984375 L 5.640625 -1.375 L 5.765625 -1.375 L 8.5 -8.984375 L 10 -8.984375 L 10 0 L 9 0 L 9 -7.328125 L 8.84375 -7.359375 L 6.203125 0 L 5.140625 0 L 2.484375 -7.359375 L 2.328125 -7.328125 Z M 2.328125 0 "/></g></g></g><g fill="#ffffff" fill-opacity="1"><g transform="translate(62.17753, 18.87097)"><g><path d="M 3.890625 0.125 C 3.242188 0.125 2.6875 -0.0078125 2.21875 -0.28125 C 1.75 -0.550781 1.382812 -0.945312 1.125 -1.46875 C 0.875 -2 0.75 -2.640625 0.75 -3.390625 C 0.75 -4.140625 0.875 -4.773438 1.125 -5.296875 C 1.382812 -5.828125 1.75 -6.226562 2.21875 -6.5 C 2.6875 -6.769531 3.242188 -6.90625 3.890625 -6.90625 C 4.523438 -6.90625 5.078125 -6.769531 5.546875 -6.5 C 6.023438 -6.226562 6.390625 -5.828125 6.640625 -5.296875 C 6.898438 -4.773438 7.03125 -4.140625 7.03125 -3.390625 C 7.03125 -2.640625 6.898438 -2 6.640625 -1.46875 C 6.390625 -0.945312 6.023438 -0.550781 5.546875 -0.28125 C 5.078125 -0.0078125 4.523438 0.125 3.890625 0.125 Z M 3.890625 -0.765625 C 4.566406 -0.765625 5.082031 -0.976562 5.4375 -1.40625 C 5.789062 -1.832031 5.96875 -2.492188 5.96875 -3.390625 C 5.96875 -4.285156 5.789062 -4.941406 5.4375 -5.359375 C 5.082031 -5.785156 4.566406 -6 3.890625 -6 C 3.210938 -6 2.691406 -5.785156 2.328125 -5.359375 C 1.972656 -4.929688 1.796875 -4.273438 1.796875 -3.390625 C 1.796875 -2.492188 1.972656 -1.832031 2.328125 -1.40625 C 2.691406 -0.976562 3.210938 -0.765625 3.890625 -0.765625 Z M 3.890625 -0.765625 "/></g></g></g><g fill="#ffffff" fill-opacity="1"><g transform="translate(69.952095, 18.87097)"><g><path d="M 1.171875 0 L 1.171875 -6.78125 L 2.125 -6.78125 L 2.125 -5.71875 L 2.265625 -5.6875 C 2.578125 -6.445312 3.171875 -6.828125 4.046875 -6.828125 C 4.503906 -6.828125 4.847656 -6.742188 5.078125 -6.578125 L 4.828125 -5.734375 L 4.703125 -5.71875 C 4.441406 -5.84375 4.160156 -5.90625 3.859375 -5.90625 C 3.316406 -5.90625 2.898438 -5.703125 2.609375 -5.296875 C 2.328125 -4.890625 2.1875 -4.234375 2.1875 -3.328125 L 2.1875 0 Z M 1.171875 0 "/></g></g></g><g fill="#ffffff" fill-opacity="1"><g transform="translate(75.006161, 18.87097)"><g><path d="M 6.453125 -3.15625 L 1.796875 -3.15625 C 1.828125 -2.332031 2.023438 -1.726562 2.390625 -1.34375 C 2.753906 -0.957031 3.257812 -0.765625 3.90625 -0.765625 C 4.382812 -0.765625 4.769531 -0.847656 5.0625 -1.015625 C 5.363281 -1.191406 5.597656 -1.46875 5.765625 -1.84375 L 5.890625 -1.84375 L 6.546875 -1.453125 C 6.347656 -0.960938 6.03125 -0.578125 5.59375 -0.296875 C 5.164062 -0.015625 4.601562 0.125 3.90625 0.125 C 3.25 0.125 2.679688 0 2.203125 -0.25 C 1.734375 -0.507812 1.375 -0.898438 1.125 -1.421875 C 0.875 -1.953125 0.75 -2.609375 0.75 -3.390625 C 0.75 -4.148438 0.878906 -4.796875 1.140625 -5.328125 C 1.410156 -5.859375 1.773438 -6.253906 2.234375 -6.515625 C 2.703125 -6.773438 3.238281 -6.90625 3.84375 -6.90625 C 4.707031 -6.90625 5.382812 -6.660156 5.875 -6.171875 C 6.363281 -5.679688 6.609375 -4.953125 6.609375 -3.984375 C 6.609375 -3.609375 6.597656 -3.359375 6.578125 -3.234375 Z M 5.625 -3.984375 C 5.601562 -4.710938 5.441406 -5.238281 5.140625 -5.5625 C 4.835938 -5.894531 4.40625 -6.0625 3.84375 -6.0625 C 3.25 -6.0625 2.78125 -5.894531 2.4375 -5.5625 C 2.101562 -5.226562 1.898438 -4.703125 1.828125 -3.984375 Z M 5.625 -3.984375 "/></g></g></g></svg>