<svg xmlns="http://www.w3.org/2000/svg" xmlns:xlink="http://www.w3.org/1999/xlink" width="1920" zoomAndPan="magnify" viewBox="0 0 1440 809.999993" height="1080" preserveAspectRatio="xMidYMid meet" version="1.0"><defs><filter x="0%" y="0%" width="100%" height="100%" id="2d1fae55df"><feColorMatrix values="0 0 0 0 1 0 0 0 0 1 0 0 0 0 1 0 0 0 1 0" color-interpolation-filters="sRGB"/></filter><g/><mask id="0588ef0f7e"><g filter="url(#2d1fae55df)"><rect x="-144" width="1728" fill="#000000" y="-80.999999" height="971.999992" fill-opacity="0.49"/></g></mask><clipPath id="892d998891"><path d="M 0.640625 0 L 317.679688 0 L 317.679688 810 L 0.640625 810 Z M 0.640625 0 " clip-rule="nonzero"/></clipPath><clipPath id="447c64c3fb"><path d="M 276.832031 659.109375 L 317.492188 659.109375 L 317.492188 810 L 276.832031 810 Z M 276.832031 659.109375 " clip-rule="nonzero"/></clipPath><clipPath id="383c8a9418"><path d="M 0.832031 0.109375 L 41.492188 0.109375 L 41.492188 151 L 0.832031 151 Z M 0.832031 0.109375 " clip-rule="nonzero"/></clipPath><clipPath id="a5de4f9336"><rect x="0" width="42" y="0" height="151"/></clipPath><clipPath id="548006c9d0"><path d="M 238.351562 558.566406 L 277.929688 558.566406 L 277.929688 709.457031 L 238.351562 709.457031 Z M 238.351562 558.566406 " clip-rule="nonzero"/></clipPath><clipPath id="1b329aa7a4"><path d="M 0.351562 0.566406 L 39.929688 0.566406 L 39.929688 151.457031 L 0.351562 151.457031 Z M 0.351562 0.566406 " clip-rule="nonzero"/></clipPath><clipPath id="228ae7e84a"><rect x="0" width="40" y="0" height="152"/></clipPath><clipPath id="3dabb57407"><path d="M 198.769531 558.566406 L 241.03125 558.566406 L 241.03125 610.082031 L 198.769531 610.082031 Z M 198.769531 558.566406 " clip-rule="nonzero"/></clipPath><clipPath id="489340a1f2"><path d="M 0.769531 0.566406 L 43.03125 0.566406 L 43.03125 52.082031 L 0.769531 52.082031 Z M 0.769531 0.566406 " clip-rule="nonzero"/></clipPath><clipPath id="f778edc24b"><rect x="0" width="44" y="0" height="53"/></clipPath><clipPath id="f021a0620f"><path d="M 159.1875 459.191406 L 198.769531 459.191406 L 198.769531 558.566406 L 159.1875 558.566406 Z M 159.1875 459.191406 " clip-rule="nonzero"/></clipPath><clipPath id="7ce6b3475f"><path d="M 0.1875 0.191406 L 39.769531 0.191406 L 39.769531 99.566406 L 0.1875 99.566406 Z M 0.1875 0.191406 " clip-rule="nonzero"/></clipPath><clipPath id="4e23c49900"><rect x="0" width="40" y="0" height="100"/></clipPath><clipPath id="b7c6bfda41"><path d="M 196.570312 359.816406 L 236.148438 359.816406 L 236.148438 459.191406 L 196.570312 459.191406 Z M 196.570312 359.816406 " clip-rule="nonzero"/></clipPath><clipPath id="7ffbae46fe"><path d="M 0.570312 0.816406 L 40.148438 0.816406 L 40.148438 100.191406 L 0.570312 100.191406 Z M 0.570312 0.816406 " clip-rule="nonzero"/></clipPath><clipPath id="6d1893836a"><rect x="0" width="41" y="0" height="101"/></clipPath><clipPath id="3bdba3850c"><path d="M 156.988281 359.816406 L 198.769531 359.816406 L 198.769531 409.503906 L 156.988281 409.503906 Z M 156.988281 359.816406 " clip-rule="nonzero"/></clipPath><clipPath id="22f446d562"><path d="M 0.988281 0.816406 L 42.769531 0.816406 L 42.769531 50.503906 L 0.988281 50.503906 Z M 0.988281 0.816406 " clip-rule="nonzero"/></clipPath><clipPath id="0340c69e48"><rect x="0" width="43" y="0" height="51"/></clipPath><clipPath id="666a37a204"><path d="M 117.40625 310.128906 L 156.988281 310.128906 L 156.988281 359.816406 L 117.40625 359.816406 Z M 117.40625 310.128906 " clip-rule="nonzero"/></clipPath><clipPath id="c7ffcb6699"><path d="M 0.40625 0.128906 L 39.988281 0.128906 L 39.988281 49.816406 L 0.40625 49.816406 Z M 0.40625 0.128906 " clip-rule="nonzero"/></clipPath><clipPath id="b20edab323"><rect x="0" width="40" y="0" height="50"/></clipPath><clipPath id="bea853390d"><path d="M 77.828125 260.441406 L 117.40625 260.441406 L 117.40625 310.128906 L 77.828125 310.128906 Z M 77.828125 260.441406 " clip-rule="nonzero"/></clipPath><clipPath id="99a83d133b"><path d="M 0.828125 0.441406 L 40.40625 0.441406 L 40.40625 50.128906 L 0.828125 50.128906 Z M 0.828125 0.441406 " clip-rule="nonzero"/></clipPath><clipPath id="c008feffec"><rect x="0" width="41" y="0" height="51"/></clipPath><clipPath id="0988158a00"><path d="M 119.609375 160.289062 L 159.1875 160.289062 L 159.1875 260.441406 L 119.609375 260.441406 Z M 119.609375 160.289062 " clip-rule="nonzero"/></clipPath><clipPath id="3a4620e917"><path d="M 0.609375 0.289062 L 40.1875 0.289062 L 40.1875 100.441406 L 0.609375 100.441406 Z M 0.609375 0.289062 " clip-rule="nonzero"/></clipPath><clipPath id="e1529d8031"><rect x="0" width="41" y="0" height="101"/></clipPath><clipPath id="1d4e92072d"><path d="M 77.828125 107.90625 L 119.609375 107.90625 L 119.609375 161.691406 L 77.828125 161.691406 Z M 77.828125 107.90625 " clip-rule="nonzero"/></clipPath><clipPath id="520751b682"><path d="M 0.828125 0.90625 L 42.609375 0.90625 L 42.609375 54.691406 L 0.828125 54.691406 Z M 0.828125 0.90625 " clip-rule="nonzero"/></clipPath><clipPath id="bebe69966d"><rect x="0" width="43" y="0" height="55"/></clipPath><clipPath id="d807e4f7a3"><path d="M 40.445312 61.023438 L 80.027344 61.023438 L 80.027344 111.355469 L 40.445312 111.355469 Z M 40.445312 61.023438 " clip-rule="nonzero"/></clipPath><clipPath id="780807c594"><path d="M 0.445312 0.0234375 L 40.027344 0.0234375 L 40.027344 50.355469 L 0.445312 50.355469 Z M 0.445312 0.0234375 " clip-rule="nonzero"/></clipPath><clipPath id="fac8688c9e"><rect x="0" width="41" y="0" height="51"/></clipPath><clipPath id="32beaa3ccd"><path d="M 0.867188 0 L 40.445312 0 L 40.445312 61.023438 L 0.867188 61.023438 Z M 0.867188 0 " clip-rule="nonzero"/></clipPath><clipPath id="9252a5e170"><path d="M 0.867188 0 L 40.445312 0 L 40.445312 61.023438 L 0.867188 61.023438 Z M 0.867188 0 " clip-rule="nonzero"/></clipPath><clipPath id="5a58a214a1"><rect x="0" width="41" y="0" height="62"/></clipPath><clipPath id="95170ff09e"><rect x="0" width="318" y="0" height="810"/></clipPath><clipPath id="035f255619"><rect x="0" width="318" y="0" height="810"/></clipPath><mask id="103102dae0"><g filter="url(#2d1fae55df)"><rect x="-144" width="1728" fill="#000000" y="-80.999999" height="971.999992" fill-opacity="0.49"/></g></mask><clipPath id="3a88e488b8"><path d="M 0.519531 0 L 247 0 L 247 737.28125 L 0.519531 737.28125 Z M 0.519531 0 " clip-rule="nonzero"/></clipPath><clipPath id="5ac38c6409"><path d="M 0.546875 0 L 41.5 0 L 41.5 138.890625 L 0.546875 138.890625 Z M 0.546875 0 " clip-rule="nonzero"/></clipPath><clipPath id="295a052ec0"><path d="M 0.546875 0 L 41.5 0 L 41.5 138.890625 L 0.546875 138.890625 Z M 0.546875 0 " clip-rule="nonzero"/></clipPath><clipPath id="6db010b18e"><rect x="0" width="42" y="0" height="139"/></clipPath><clipPath id="50141b4505"><path d="M 40.390625 88.542969 L 80.257812 88.542969 L 80.257812 239.433594 L 40.390625 239.433594 Z M 40.390625 88.542969 " clip-rule="nonzero"/></clipPath><clipPath id="283933f171"><path d="M 0.390625 0.542969 L 40.257812 0.542969 L 40.257812 151.433594 L 0.390625 151.433594 Z M 0.390625 0.542969 " clip-rule="nonzero"/></clipPath><clipPath id="650cac6152"><rect x="0" width="41" y="0" height="152"/></clipPath><clipPath id="b40cff13a9"><path d="M 77.558594 187.917969 L 120.125 187.917969 L 120.125 239.433594 L 77.558594 239.433594 Z M 77.558594 187.917969 " clip-rule="nonzero"/></clipPath><clipPath id="bd455f8342"><path d="M 0.558594 0.917969 L 43.125 0.917969 L 43.125 52.433594 L 0.558594 52.433594 Z M 0.558594 0.917969 " clip-rule="nonzero"/></clipPath><clipPath id="a33c81c4b6"><rect x="0" width="44" y="0" height="53"/></clipPath><clipPath id="6309a67ce3"><path d="M 120.125 239.433594 L 159.988281 239.433594 L 159.988281 338.808594 L 120.125 338.808594 Z M 120.125 239.433594 " clip-rule="nonzero"/></clipPath><clipPath id="9f5a5d74dd"><path d="M 0.125 0.433594 L 39.988281 0.433594 L 39.988281 99.808594 L 0.125 99.808594 Z M 0.125 0.433594 " clip-rule="nonzero"/></clipPath><clipPath id="88847e415e"><rect x="0" width="40" y="0" height="100"/></clipPath><clipPath id="02cfa5571b"><path d="M 82.472656 338.808594 L 122.339844 338.808594 L 122.339844 438.183594 L 82.472656 438.183594 Z M 82.472656 338.808594 " clip-rule="nonzero"/></clipPath><clipPath id="d151fd7125"><path d="M 0.472656 0.808594 L 40.339844 0.808594 L 40.339844 100.183594 L 0.472656 100.183594 Z M 0.472656 0.808594 " clip-rule="nonzero"/></clipPath><clipPath id="e611c602f8"><rect x="0" width="41" y="0" height="101"/></clipPath><clipPath id="5446a2b104"><path d="M 120.125 388.496094 L 162.207031 388.496094 L 162.207031 438.183594 L 120.125 438.183594 Z M 120.125 388.496094 " clip-rule="nonzero"/></clipPath><clipPath id="e5e48cf1a1"><path d="M 0.125 0.496094 L 42.207031 0.496094 L 42.207031 50.183594 L 0.125 50.183594 Z M 0.125 0.496094 " clip-rule="nonzero"/></clipPath><clipPath id="ba393ccc3e"><rect x="0" width="43" y="0" height="51"/></clipPath><clipPath id="928d131bba"><path d="M 162.207031 438.183594 L 202.070312 438.183594 L 202.070312 487.871094 L 162.207031 487.871094 Z M 162.207031 438.183594 " clip-rule="nonzero"/></clipPath><clipPath id="f349676cb7"><path d="M 0.207031 0.183594 L 40.070312 0.183594 L 40.070312 49.871094 L 0.207031 49.871094 Z M 0.207031 0.183594 " clip-rule="nonzero"/></clipPath><clipPath id="da7809ff5a"><rect x="0" width="41" y="0" height="50"/></clipPath><clipPath id="66043032cd"><path d="M 202.070312 487.871094 L 241.9375 487.871094 L 241.9375 537.558594 L 202.070312 537.558594 Z M 202.070312 487.871094 " clip-rule="nonzero"/></clipPath><clipPath id="8c96c12079"><path d="M 0.0703125 0.871094 L 39.9375 0.871094 L 39.9375 50.558594 L 0.0703125 50.558594 Z M 0.0703125 0.871094 " clip-rule="nonzero"/></clipPath><clipPath id="d202674972"><rect x="0" width="40" y="0" height="51"/></clipPath><clipPath id="21842ade79"><path d="M 159.988281 537.558594 L 199.855469 537.558594 L 199.855469 637.710938 L 159.988281 637.710938 Z M 159.988281 537.558594 " clip-rule="nonzero"/></clipPath><clipPath id="874bb7435e"><path d="M 0.988281 0.558594 L 40.855469 0.558594 L 40.855469 100.710938 L 0.988281 100.710938 Z M 0.988281 0.558594 " clip-rule="nonzero"/></clipPath><clipPath id="8eabae46b2"><rect x="0" width="41" y="0" height="101"/></clipPath><clipPath id="c7d85f4dab"><path d="M 199.855469 636.308594 L 241.9375 636.308594 L 241.9375 690.09375 L 199.855469 690.09375 Z M 199.855469 636.308594 " clip-rule="nonzero"/></clipPath><clipPath id="75ed97f72f"><path d="M 0.855469 0.308594 L 42.9375 0.308594 L 42.9375 54.09375 L 0.855469 54.09375 Z M 0.855469 0.308594 " clip-rule="nonzero"/></clipPath><clipPath id="b06e91034d"><rect x="0" width="43" y="0" height="55"/></clipPath><clipPath id="6984608396"><path d="M 239.722656 686.644531 L 247 686.644531 L 247 736.976562 L 239.722656 736.976562 Z M 239.722656 686.644531 " clip-rule="nonzero"/></clipPath><clipPath id="810d3e3073"><path d="M 0.722656 0.644531 L 8 0.644531 L 8 50.976562 L 0.722656 50.976562 Z M 0.722656 0.644531 " clip-rule="nonzero"/></clipPath><clipPath id="98a353b6a0"><rect x="0" width="8" y="0" height="51"/></clipPath><clipPath id="a6d660b4ab"><rect x="0" width="247" y="0" height="738"/></clipPath><clipPath id="8f5d5f7118"><rect x="0" width="247" y="0" height="738"/></clipPath><mask id="94ebcef2ef"><g filter="url(#2d1fae55df)"><rect x="-144" width="1728" fill="#000000" y="-80.999999" height="971.999992" fill-opacity="0.49"/></g></mask><clipPath id="f2e4171891"><path d="M 0.519531 0 L 235 0 L 235 702.238281 L 0.519531 702.238281 Z M 0.519531 0 " clip-rule="nonzero"/></clipPath><clipPath id="b20ba57441"><path d="M 0.546875 0 L 41.5 0 L 41.5 150.890625 L 0.546875 150.890625 Z M 0.546875 0 " clip-rule="nonzero"/></clipPath><clipPath id="1809cdaeeb"><path d="M 0.546875 0 L 41.5 0 L 41.5 150.890625 L 0.546875 150.890625 Z M 0.546875 0 " clip-rule="nonzero"/></clipPath><clipPath id="0c2f8de377"><rect x="0" width="42" y="0" height="151"/></clipPath><clipPath id="1b1f56fc01"><path d="M 40.390625 100.542969 L 80.257812 100.542969 L 80.257812 251.433594 L 40.390625 251.433594 Z M 40.390625 100.542969 " clip-rule="nonzero"/></clipPath><clipPath id="6dcc23a465"><path d="M 0.390625 0.542969 L 40.257812 0.542969 L 40.257812 151.433594 L 0.390625 151.433594 Z M 0.390625 0.542969 " clip-rule="nonzero"/></clipPath><clipPath id="412c732399"><rect x="0" width="41" y="0" height="152"/></clipPath><clipPath id="db051b5890"><path d="M 77.558594 199.917969 L 120.125 199.917969 L 120.125 251.433594 L 77.558594 251.433594 Z M 77.558594 199.917969 " clip-rule="nonzero"/></clipPath><clipPath id="d39975a5c2"><path d="M 0.558594 0.917969 L 43.125 0.917969 L 43.125 52.433594 L 0.558594 52.433594 Z M 0.558594 0.917969 " clip-rule="nonzero"/></clipPath><clipPath id="df3949b548"><rect x="0" width="44" y="0" height="53"/></clipPath><clipPath id="55967e9782"><path d="M 120.125 251.433594 L 159.988281 251.433594 L 159.988281 350.808594 L 120.125 350.808594 Z M 120.125 251.433594 " clip-rule="nonzero"/></clipPath><clipPath id="ff1ecc6b7f"><path d="M 0.125 0.433594 L 39.988281 0.433594 L 39.988281 99.808594 L 0.125 99.808594 Z M 0.125 0.433594 " clip-rule="nonzero"/></clipPath><clipPath id="de53c0cdad"><rect x="0" width="40" y="0" height="100"/></clipPath><clipPath id="20200fbeb9"><path d="M 82.472656 350.808594 L 122.339844 350.808594 L 122.339844 450.183594 L 82.472656 450.183594 Z M 82.472656 350.808594 " clip-rule="nonzero"/></clipPath><clipPath id="75d30b2c9c"><path d="M 0.472656 0.808594 L 40.339844 0.808594 L 40.339844 100.183594 L 0.472656 100.183594 Z M 0.472656 0.808594 " clip-rule="nonzero"/></clipPath><clipPath id="50bff75abc"><rect x="0" width="41" y="0" height="101"/></clipPath><clipPath id="e469e0e52a"><path d="M 120.125 400.496094 L 162.207031 400.496094 L 162.207031 450.183594 L 120.125 450.183594 Z M 120.125 400.496094 " clip-rule="nonzero"/></clipPath><clipPath id="a876c9ec34"><path d="M 0.125 0.496094 L 42.207031 0.496094 L 42.207031 50.183594 L 0.125 50.183594 Z M 0.125 0.496094 " clip-rule="nonzero"/></clipPath><clipPath id="251ac85399"><rect x="0" width="43" y="0" height="51"/></clipPath><clipPath id="54205d6739"><path d="M 162.207031 450.183594 L 202.070312 450.183594 L 202.070312 499.871094 L 162.207031 499.871094 Z M 162.207031 450.183594 " clip-rule="nonzero"/></clipPath><clipPath id="765f978eff"><path d="M 0.207031 0.183594 L 40.070312 0.183594 L 40.070312 49.871094 L 0.207031 49.871094 Z M 0.207031 0.183594 " clip-rule="nonzero"/></clipPath><clipPath id="3783382576"><rect x="0" width="41" y="0" height="50"/></clipPath><clipPath id="d8b2109043"><path d="M 202.070312 499.871094 L 235 499.871094 L 235 549.558594 L 202.070312 549.558594 Z M 202.070312 499.871094 " clip-rule="nonzero"/></clipPath><clipPath id="7242155750"><path d="M 0.0703125 0.871094 L 33 0.871094 L 33 50.558594 L 0.0703125 50.558594 Z M 0.0703125 0.871094 " clip-rule="nonzero"/></clipPath><clipPath id="77dfa79608"><rect x="0" width="33" y="0" height="51"/></clipPath><clipPath id="f487d2e445"><path d="M 159.988281 549.558594 L 199.855469 549.558594 L 199.855469 649.710938 L 159.988281 649.710938 Z M 159.988281 549.558594 " clip-rule="nonzero"/></clipPath><clipPath id="6e92d66364"><path d="M 0.988281 0.558594 L 40.855469 0.558594 L 40.855469 100.710938 L 0.988281 100.710938 Z M 0.988281 0.558594 " clip-rule="nonzero"/></clipPath><clipPath id="3054089b64"><rect x="0" width="41" y="0" height="101"/></clipPath><clipPath id="e282d10bfc"><path d="M 199.855469 648.308594 L 235 648.308594 L 235 702.09375 L 199.855469 702.09375 Z M 199.855469 648.308594 " clip-rule="nonzero"/></clipPath><clipPath id="2bd8fcbd87"><path d="M 0.855469 0.308594 L 36 0.308594 L 36 54.09375 L 0.855469 54.09375 Z M 0.855469 0.308594 " clip-rule="nonzero"/></clipPath><clipPath id="e3ee83a1fb"><rect x="0" width="36" y="0" height="55"/></clipPath><clipPath id="aeb3452dac"><rect x="0" width="235" y="0" height="703"/></clipPath><clipPath id="4df181c073"><rect x="0" width="235" y="0" height="703"/></clipPath><mask id="76beb53b5d"><g filter="url(#2d1fae55df)"><rect x="-144" width="1728" fill="#000000" y="-80.999999" height="971.999992" fill-opacity="0.49"/></g></mask><clipPath id="ff1948230b"><path d="M 0.640625 0.761719 L 317.679688 0.761719 L 317.679688 799 L 0.640625 799 Z M 0.640625 0.761719 " clip-rule="nonzero"/></clipPath><clipPath id="1743b68d15"><path d="M 276.832031 660.109375 L 317.492188 660.109375 L 317.492188 799 L 276.832031 799 Z M 276.832031 660.109375 " clip-rule="nonzero"/></clipPath><clipPath id="2e9011dd8c"><path d="M 0.832031 0.109375 L 41.492188 0.109375 L 41.492188 139 L 0.832031 139 Z M 0.832031 0.109375 " clip-rule="nonzero"/></clipPath><clipPath id="b13274c224"><rect x="0" width="42" y="0" height="139"/></clipPath><clipPath id="8adb1b4d14"><path d="M 238.351562 559.566406 L 277.929688 559.566406 L 277.929688 710.457031 L 238.351562 710.457031 Z M 238.351562 559.566406 " clip-rule="nonzero"/></clipPath><clipPath id="66efbeb8dc"><path d="M 0.351562 0.566406 L 39.929688 0.566406 L 39.929688 151.457031 L 0.351562 151.457031 Z M 0.351562 0.566406 " clip-rule="nonzero"/></clipPath><clipPath id="d1deeb7b1d"><rect x="0" width="40" y="0" height="152"/></clipPath><clipPath id="4ae18439b2"><path d="M 198.769531 559.566406 L 241.03125 559.566406 L 241.03125 611.082031 L 198.769531 611.082031 Z M 198.769531 559.566406 " clip-rule="nonzero"/></clipPath><clipPath id="376206b239"><path d="M 0.769531 0.566406 L 43.03125 0.566406 L 43.03125 52.082031 L 0.769531 52.082031 Z M 0.769531 0.566406 " clip-rule="nonzero"/></clipPath><clipPath id="85f0ae397b"><rect x="0" width="44" y="0" height="53"/></clipPath><clipPath id="c6782a7494"><path d="M 159.1875 460.191406 L 198.769531 460.191406 L 198.769531 559.566406 L 159.1875 559.566406 Z M 159.1875 460.191406 " clip-rule="nonzero"/></clipPath><clipPath id="915ebc8905"><path d="M 0.1875 0.191406 L 39.769531 0.191406 L 39.769531 99.566406 L 0.1875 99.566406 Z M 0.1875 0.191406 " clip-rule="nonzero"/></clipPath><clipPath id="683e22ad15"><rect x="0" width="40" y="0" height="100"/></clipPath><clipPath id="2d5e3f1aa2"><path d="M 196.570312 360.816406 L 236.148438 360.816406 L 236.148438 460.191406 L 196.570312 460.191406 Z M 196.570312 360.816406 " clip-rule="nonzero"/></clipPath><clipPath id="26254f5907"><path d="M 0.570312 0.816406 L 40.148438 0.816406 L 40.148438 100.191406 L 0.570312 100.191406 Z M 0.570312 0.816406 " clip-rule="nonzero"/></clipPath><clipPath id="7b4f9ae0dd"><rect x="0" width="41" y="0" height="101"/></clipPath><clipPath id="e5270c99e6"><path d="M 156.988281 360.816406 L 198.769531 360.816406 L 198.769531 410.503906 L 156.988281 410.503906 Z M 156.988281 360.816406 " clip-rule="nonzero"/></clipPath><clipPath id="a047ac8d08"><path d="M 0.988281 0.816406 L 42.769531 0.816406 L 42.769531 50.503906 L 0.988281 50.503906 Z M 0.988281 0.816406 " clip-rule="nonzero"/></clipPath><clipPath id="fdcbdd3129"><rect x="0" width="43" y="0" height="51"/></clipPath><clipPath id="b0c42dba3e"><path d="M 117.40625 311.128906 L 156.988281 311.128906 L 156.988281 360.816406 L 117.40625 360.816406 Z M 117.40625 311.128906 " clip-rule="nonzero"/></clipPath><clipPath id="72d650294c"><path d="M 0.40625 0.128906 L 39.988281 0.128906 L 39.988281 49.816406 L 0.40625 49.816406 Z M 0.40625 0.128906 " clip-rule="nonzero"/></clipPath><clipPath id="ef426b3288"><rect x="0" width="40" y="0" height="50"/></clipPath><clipPath id="8c2326a929"><path d="M 77.828125 261.441406 L 117.40625 261.441406 L 117.40625 311.128906 L 77.828125 311.128906 Z M 77.828125 261.441406 " clip-rule="nonzero"/></clipPath><clipPath id="6a1e1117cd"><path d="M 0.828125 0.441406 L 40.40625 0.441406 L 40.40625 50.128906 L 0.828125 50.128906 Z M 0.828125 0.441406 " clip-rule="nonzero"/></clipPath><clipPath id="f5736178b0"><rect x="0" width="41" y="0" height="51"/></clipPath><clipPath id="861ef97b45"><path d="M 119.609375 161.289062 L 159.1875 161.289062 L 159.1875 261.441406 L 119.609375 261.441406 Z M 119.609375 161.289062 " clip-rule="nonzero"/></clipPath><clipPath id="abcaf76ff0"><path d="M 0.609375 0.289062 L 40.1875 0.289062 L 40.1875 100.441406 L 0.609375 100.441406 Z M 0.609375 0.289062 " clip-rule="nonzero"/></clipPath><clipPath id="edd56c11bb"><rect x="0" width="41" y="0" height="101"/></clipPath><clipPath id="704d5fabc1"><path d="M 77.828125 108.90625 L 119.609375 108.90625 L 119.609375 162.691406 L 77.828125 162.691406 Z M 77.828125 108.90625 " clip-rule="nonzero"/></clipPath><clipPath id="69903b28aa"><path d="M 0.828125 0.90625 L 42.609375 0.90625 L 42.609375 54.691406 L 0.828125 54.691406 Z M 0.828125 0.90625 " clip-rule="nonzero"/></clipPath><clipPath id="0f376191c0"><rect x="0" width="43" y="0" height="55"/></clipPath><clipPath id="636cfe7443"><path d="M 40.445312 62.023438 L 80.027344 62.023438 L 80.027344 112.355469 L 40.445312 112.355469 Z M 40.445312 62.023438 " clip-rule="nonzero"/></clipPath><clipPath id="1f6efea429"><path d="M 0.445312 0.0234375 L 40.027344 0.0234375 L 40.027344 50.355469 L 0.445312 50.355469 Z M 0.445312 0.0234375 " clip-rule="nonzero"/></clipPath><clipPath id="ac745076d5"><rect x="0" width="41" y="0" height="51"/></clipPath><clipPath id="11346505fa"><path d="M 0.867188 1 L 40.445312 1 L 40.445312 62.023438 L 0.867188 62.023438 Z M 0.867188 1 " clip-rule="nonzero"/></clipPath><clipPath id="8a51bb7238"><path d="M 0.867188 0 L 40.445312 0 L 40.445312 61.023438 L 0.867188 61.023438 Z M 0.867188 0 " clip-rule="nonzero"/></clipPath><clipPath id="eed11979fd"><rect x="0" width="41" y="0" height="62"/></clipPath><clipPath id="7ce8ba6bf0"><rect x="0" width="318" y="0" height="799"/></clipPath><clipPath id="3a05f97103"><rect x="0" width="318" y="0" height="799"/></clipPath><mask id="67bd03d983"><g filter="url(#2d1fae55df)"><rect x="-144" width="1728" fill="#000000" y="-80.999999" height="971.999992" fill-opacity="0.49"/></g></mask><clipPath id="9c1d34ca80"><path d="M 0.558594 0.921875 L 162.320312 0.921875 L 162.320312 443 L 0.558594 443 Z M 0.558594 0.921875 " clip-rule="nonzero"/></clipPath><clipPath id="56d07f5bb4"><path d="M 0.644531 1.0625 L 41.597656 1.0625 L 41.597656 151.957031 L 0.644531 151.957031 Z M 0.644531 1.0625 " clip-rule="nonzero"/></clipPath><clipPath id="d2933442a4"><path d="M 0.644531 0.0625 L 41.597656 0.0625 L 41.597656 150.957031 L 0.644531 150.957031 Z M 0.644531 0.0625 " clip-rule="nonzero"/></clipPath><clipPath id="6d7e87213d"><rect x="0" width="42" y="0" height="151"/></clipPath><clipPath id="c8b7d76e7d"><path d="M 40.488281 101.605469 L 80.355469 101.605469 L 80.355469 252.496094 L 40.488281 252.496094 Z M 40.488281 101.605469 " clip-rule="nonzero"/></clipPath><clipPath id="93a64d4197"><path d="M 0.488281 0.605469 L 40.355469 0.605469 L 40.355469 151.496094 L 0.488281 151.496094 Z M 0.488281 0.605469 " clip-rule="nonzero"/></clipPath><clipPath id="5851d04fdd"><rect x="0" width="41" y="0" height="152"/></clipPath><clipPath id="dc3c402873"><path d="M 77.65625 200.980469 L 120.21875 200.980469 L 120.21875 252.496094 L 77.65625 252.496094 Z M 77.65625 200.980469 " clip-rule="nonzero"/></clipPath><clipPath id="387a091375"><path d="M 0.65625 0.980469 L 43.21875 0.980469 L 43.21875 52.496094 L 0.65625 52.496094 Z M 0.65625 0.980469 " clip-rule="nonzero"/></clipPath><clipPath id="d7b592f830"><rect x="0" width="44" y="0" height="53"/></clipPath><clipPath id="5c62733f63"><path d="M 120.21875 252.496094 L 160.085938 252.496094 L 160.085938 351.871094 L 120.21875 351.871094 Z M 120.21875 252.496094 " clip-rule="nonzero"/></clipPath><clipPath id="7eae422898"><path d="M 0.21875 0.496094 L 40.085938 0.496094 L 40.085938 99.871094 L 0.21875 99.871094 Z M 0.21875 0.496094 " clip-rule="nonzero"/></clipPath><clipPath id="6089848fa7"><rect x="0" width="41" y="0" height="100"/></clipPath><clipPath id="84d3e1e99d"><path d="M 82.570312 351.871094 L 122.4375 351.871094 L 122.4375 443 L 82.570312 443 Z M 82.570312 351.871094 " clip-rule="nonzero"/></clipPath><clipPath id="1aa04f6b85"><path d="M 0.570312 0.871094 L 40.4375 0.871094 L 40.4375 92 L 0.570312 92 Z M 0.570312 0.871094 " clip-rule="nonzero"/></clipPath><clipPath id="afd27bd0a2"><rect x="0" width="41" y="0" height="92"/></clipPath><clipPath id="2eae7c2c08"><path d="M 120.21875 401.558594 L 162.300781 401.558594 L 162.300781 443 L 120.21875 443 Z M 120.21875 401.558594 " clip-rule="nonzero"/></clipPath><clipPath id="b7028c62cc"><path d="M 0.21875 0.558594 L 42.300781 0.558594 L 42.300781 42 L 0.21875 42 Z M 0.21875 0.558594 " clip-rule="nonzero"/></clipPath><clipPath id="ce9edcf6ad"><rect x="0" width="43" y="0" height="42"/></clipPath><clipPath id="f2414ed435"><rect x="0" width="163" y="0" height="443"/></clipPath><clipPath id="a9f9f1ca99"><rect x="0" width="163" y="0" height="443"/></clipPath><mask id="d27781a6df"><g filter="url(#2d1fae55df)"><rect x="-144" width="1728" fill="#000000" y="-80.999999" height="971.999992" fill-opacity="0.49"/></g></mask><clipPath id="9ffd65e114"><path d="M 0.558594 0.921875 L 162.320312 0.921875 L 162.320312 431 L 0.558594 431 Z M 0.558594 0.921875 " clip-rule="nonzero"/></clipPath><clipPath id="0bb05c0093"><path d="M 0.644531 1.0625 L 41.597656 1.0625 L 41.597656 151.957031 L 0.644531 151.957031 Z M 0.644531 1.0625 " clip-rule="nonzero"/></clipPath><clipPath id="02ad2f8562"><path d="M 0.644531 0.0625 L 41.597656 0.0625 L 41.597656 150.957031 L 0.644531 150.957031 Z M 0.644531 0.0625 " clip-rule="nonzero"/></clipPath><clipPath id="040bbaa255"><rect x="0" width="42" y="0" height="151"/></clipPath><clipPath id="1370735a5d"><path d="M 40.488281 101.605469 L 80.355469 101.605469 L 80.355469 252.496094 L 40.488281 252.496094 Z M 40.488281 101.605469 " clip-rule="nonzero"/></clipPath><clipPath id="dfb8ad73c2"><path d="M 0.488281 0.605469 L 40.355469 0.605469 L 40.355469 151.496094 L 0.488281 151.496094 Z M 0.488281 0.605469 " clip-rule="nonzero"/></clipPath><clipPath id="629bcb5613"><rect x="0" width="41" y="0" height="152"/></clipPath><clipPath id="f3e56259cc"><path d="M 77.65625 200.980469 L 120.21875 200.980469 L 120.21875 252.496094 L 77.65625 252.496094 Z M 77.65625 200.980469 " clip-rule="nonzero"/></clipPath><clipPath id="620f28be36"><path d="M 0.65625 0.980469 L 43.21875 0.980469 L 43.21875 52.496094 L 0.65625 52.496094 Z M 0.65625 0.980469 " clip-rule="nonzero"/></clipPath><clipPath id="0eb81e8626"><rect x="0" width="44" y="0" height="53"/></clipPath><clipPath id="23b7eee284"><path d="M 120.21875 252.496094 L 160.085938 252.496094 L 160.085938 351.871094 L 120.21875 351.871094 Z M 120.21875 252.496094 " clip-rule="nonzero"/></clipPath><clipPath id="08de89377c"><path d="M 0.21875 0.496094 L 40.085938 0.496094 L 40.085938 99.871094 L 0.21875 99.871094 Z M 0.21875 0.496094 " clip-rule="nonzero"/></clipPath><clipPath id="c69f35a1c5"><rect x="0" width="41" y="0" height="100"/></clipPath><clipPath id="f23d86090a"><path d="M 82.570312 351.871094 L 122.4375 351.871094 L 122.4375 431 L 82.570312 431 Z M 82.570312 351.871094 " clip-rule="nonzero"/></clipPath><clipPath id="2f97f7fc84"><path d="M 0.570312 0.871094 L 40.4375 0.871094 L 40.4375 80 L 0.570312 80 Z M 0.570312 0.871094 " clip-rule="nonzero"/></clipPath><clipPath id="b47c79b7ee"><rect x="0" width="41" y="0" height="80"/></clipPath><clipPath id="cff0c8c77f"><path d="M 120.21875 401.558594 L 162.300781 401.558594 L 162.300781 431 L 120.21875 431 Z M 120.21875 401.558594 " clip-rule="nonzero"/></clipPath><clipPath id="bbd3c8774c"><path d="M 0.21875 0.558594 L 42.300781 0.558594 L 42.300781 30 L 0.21875 30 Z M 0.21875 0.558594 " clip-rule="nonzero"/></clipPath><clipPath id="593d4c9263"><rect x="0" width="43" y="0" height="30"/></clipPath><clipPath id="2a0e2d1409"><rect x="0" width="163" y="0" height="431"/></clipPath><clipPath id="d85690d3b5"><rect x="0" width="163" y="0" height="431"/></clipPath><mask id="75243c1717"><g filter="url(#2d1fae55df)"><rect x="-144" width="1728" fill="#000000" y="-80.999999" height="971.999992" fill-opacity="0.49"/></g></mask><clipPath id="49dcd66f3b"><path d="M 0.761719 0 L 160.359375 0 L 160.359375 371.28125 L 0.761719 371.28125 Z M 0.761719 0 " clip-rule="nonzero"/></clipPath><clipPath id="d77626d8a9"><path d="M 119.371094 220.171875 L 160.324219 220.171875 L 160.324219 371.0625 L 119.371094 371.0625 Z M 119.371094 220.171875 " clip-rule="nonzero"/></clipPath><clipPath id="ae683d357e"><path d="M 0.371094 0.171875 L 41.324219 0.171875 L 41.324219 151.0625 L 0.371094 151.0625 Z M 0.371094 0.171875 " clip-rule="nonzero"/></clipPath><clipPath id="43bc7859b9"><rect x="0" width="42" y="0" height="152"/></clipPath><clipPath id="9835211cde"><path d="M 80.613281 119.628906 L 120.480469 119.628906 L 120.480469 270.519531 L 80.613281 270.519531 Z M 80.613281 119.628906 " clip-rule="nonzero"/></clipPath><clipPath id="b1c2303733"><path d="M 0.613281 0.628906 L 40.480469 0.628906 L 40.480469 151.519531 L 0.613281 151.519531 Z M 0.613281 0.628906 " clip-rule="nonzero"/></clipPath><clipPath id="5a63b7d16a"><rect x="0" width="41" y="0" height="152"/></clipPath><clipPath id="3e5f290ee3"><path d="M 40.746094 119.628906 L 83.3125 119.628906 L 83.3125 171.144531 L 40.746094 171.144531 Z M 40.746094 119.628906 " clip-rule="nonzero"/></clipPath><clipPath id="c1ae15a8cb"><path d="M 0.746094 0.628906 L 43.3125 0.628906 L 43.3125 52.144531 L 0.746094 52.144531 Z M 0.746094 0.628906 " clip-rule="nonzero"/></clipPath><clipPath id="926241d6fc"><rect x="0" width="44" y="0" height="53"/></clipPath><clipPath id="ad62140df3"><path d="M 0.882812 20.253906 L 40.746094 20.253906 L 40.746094 119.628906 L 0.882812 119.628906 Z M 0.882812 20.253906 " clip-rule="nonzero"/></clipPath><clipPath id="62969b7245"><path d="M 0.882812 0.253906 L 40.746094 0.253906 L 40.746094 99.628906 L 0.882812 99.628906 Z M 0.882812 0.253906 " clip-rule="nonzero"/></clipPath><clipPath id="d6732c0363"><rect x="0" width="41" y="0" height="100"/></clipPath><clipPath id="0e027bbf9b"><path d="M 38.53125 0 L 78.398438 0 L 78.398438 20.253906 L 38.53125 20.253906 Z M 38.53125 0 " clip-rule="nonzero"/></clipPath><clipPath id="2650a7b42d"><path d="M 0.53125 0 L 40.398438 0 L 40.398438 20.253906 L 0.53125 20.253906 Z M 0.53125 0 " clip-rule="nonzero"/></clipPath><clipPath id="e941946dad"><rect x="0" width="41" y="0" height="21"/></clipPath><clipPath id="8cb88c357d"><rect x="0" width="161" y="0" height="372"/></clipPath><clipPath id="f78489740e"><rect x="0" width="161" y="0" height="372"/></clipPath><mask id="e7a791103c"><g filter="url(#2d1fae55df)"><rect x="-144" width="1728" fill="#000000" y="-80.999999" height="971.999992" fill-opacity="0.49"/></g></mask><clipPath id="64bf272b5f"><path d="M 0.761719 0 L 160.359375 0 L 160.359375 359.28125 L 0.761719 359.28125 Z M 0.761719 0 " clip-rule="nonzero"/></clipPath><clipPath id="0b9e5bf86a"><path d="M 119.371094 208.171875 L 160.324219 208.171875 L 160.324219 359.0625 L 119.371094 359.0625 Z M 119.371094 208.171875 " clip-rule="nonzero"/></clipPath><clipPath id="b0bdc26ebb"><path d="M 0.371094 0.171875 L 41.324219 0.171875 L 41.324219 151.0625 L 0.371094 151.0625 Z M 0.371094 0.171875 " clip-rule="nonzero"/></clipPath><clipPath id="52e67861cf"><rect x="0" width="42" y="0" height="152"/></clipPath><clipPath id="4774daca10"><path d="M 80.613281 107.628906 L 120.480469 107.628906 L 120.480469 258.519531 L 80.613281 258.519531 Z M 80.613281 107.628906 " clip-rule="nonzero"/></clipPath><clipPath id="daaf2cf11f"><path d="M 0.613281 0.628906 L 40.480469 0.628906 L 40.480469 151.519531 L 0.613281 151.519531 Z M 0.613281 0.628906 " clip-rule="nonzero"/></clipPath><clipPath id="4ab45c65f5"><rect x="0" width="41" y="0" height="152"/></clipPath><clipPath id="cf02b0de5b"><path d="M 40.746094 107.628906 L 83.3125 107.628906 L 83.3125 159.144531 L 40.746094 159.144531 Z M 40.746094 107.628906 " clip-rule="nonzero"/></clipPath><clipPath id="f5bf22a19b"><path d="M 0.746094 0.628906 L 43.3125 0.628906 L 43.3125 52.144531 L 0.746094 52.144531 Z M 0.746094 0.628906 " clip-rule="nonzero"/></clipPath><clipPath id="563adee885"><rect x="0" width="44" y="0" height="53"/></clipPath><clipPath id="3283080e38"><path d="M 0.882812 8.253906 L 40.746094 8.253906 L 40.746094 107.628906 L 0.882812 107.628906 Z M 0.882812 8.253906 " clip-rule="nonzero"/></clipPath><clipPath id="2844d98f91"><path d="M 0.882812 0.253906 L 40.746094 0.253906 L 40.746094 99.628906 L 0.882812 99.628906 Z M 0.882812 0.253906 " clip-rule="nonzero"/></clipPath><clipPath id="38a4081270"><rect x="0" width="41" y="0" height="100"/></clipPath><clipPath id="06eced2fe6"><path d="M 38.53125 0 L 78.398438 0 L 78.398438 8.253906 L 38.53125 8.253906 Z M 38.53125 0 " clip-rule="nonzero"/></clipPath><clipPath id="5db97600d8"><path d="M 0.53125 0 L 40.398438 0 L 40.398438 8.253906 L 0.53125 8.253906 Z M 0.53125 0 " clip-rule="nonzero"/></clipPath><clipPath id="63d222e6d5"><rect x="0" width="41" y="0" height="9"/></clipPath><clipPath id="ad5e7624e6"><rect x="0" width="161" y="0" height="360"/></clipPath><clipPath id="2fe0ab2249"><rect x="0" width="161" y="0" height="360"/></clipPath><clipPath id="3e62c721a9"><rect x="0" width="1082" y="0" height="130"/></clipPath><mask id="5b14893671"><g filter="url(#2d1fae55df)"><rect x="-144" width="1728" fill="#000000" y="-80.999999" height="971.999992" fill-opacity="0.49"/></g></mask><clipPath id="36f15c6b00"><path d="M 0 0 L 202.558594 0 L 202.558594 630 L 0 630 Z M 0 0 " clip-rule="nonzero"/></clipPath><clipPath id="61ce6463f9"><path d="M 0 0.03125 L 1.996094 0.03125 L 1.996094 150.921875 L 0 150.921875 Z M 0 0.03125 " clip-rule="nonzero"/></clipPath><clipPath id="4ab9e93f95"><path d="M 0 0.03125 L 1.996094 0.03125 L 1.996094 150.921875 L 0 150.921875 Z M 0 0.03125 " clip-rule="nonzero"/></clipPath><clipPath id="0b1e75e119"><rect x="0" width="2" y="0" height="151"/></clipPath><clipPath id="3dab4323d0"><path d="M 0.886719 100.570312 L 40.753906 100.570312 L 40.753906 251.464844 L 0.886719 251.464844 Z M 0.886719 100.570312 " clip-rule="nonzero"/></clipPath><clipPath id="79b6794d08"><path d="M 0.886719 0.570312 L 40.753906 0.570312 L 40.753906 151.464844 L 0.886719 151.464844 Z M 0.886719 0.570312 " clip-rule="nonzero"/></clipPath><clipPath id="47625430d4"><rect x="0" width="41" y="0" height="152"/></clipPath><clipPath id="03556a1e9d"><path d="M 38.054688 199.949219 L 80.617188 199.949219 L 80.617188 251.464844 L 38.054688 251.464844 Z M 38.054688 199.949219 " clip-rule="nonzero"/></clipPath><clipPath id="73e037a875"><path d="M 0.0546875 0.949219 L 42.617188 0.949219 L 42.617188 52.464844 L 0.0546875 52.464844 Z M 0.0546875 0.949219 " clip-rule="nonzero"/></clipPath><clipPath id="02b3933557"><rect x="0" width="43" y="0" height="53"/></clipPath><clipPath id="d068bab13c"><path d="M 80.617188 251.464844 L 120.484375 251.464844 L 120.484375 350.839844 L 80.617188 350.839844 Z M 80.617188 251.464844 " clip-rule="nonzero"/></clipPath><clipPath id="22a3e1af65"><path d="M 0.617188 0.464844 L 40.484375 0.464844 L 40.484375 99.839844 L 0.617188 99.839844 Z M 0.617188 0.464844 " clip-rule="nonzero"/></clipPath><clipPath id="9227df0ba4"><rect x="0" width="41" y="0" height="100"/></clipPath><clipPath id="031b6e0180"><path d="M 42.96875 350.839844 L 82.835938 350.839844 L 82.835938 450.214844 L 42.96875 450.214844 Z M 42.96875 350.839844 " clip-rule="nonzero"/></clipPath><clipPath id="2ca74db847"><path d="M 0.96875 0.839844 L 40.835938 0.839844 L 40.835938 100.214844 L 0.96875 100.214844 Z M 0.96875 0.839844 " clip-rule="nonzero"/></clipPath><clipPath id="b65fc75657"><rect x="0" width="41" y="0" height="101"/></clipPath><clipPath id="72a48da351"><path d="M 80.617188 400.527344 L 122.699219 400.527344 L 122.699219 450.214844 L 80.617188 450.214844 Z M 80.617188 400.527344 " clip-rule="nonzero"/></clipPath><clipPath id="79a41aa109"><path d="M 0.617188 0.527344 L 42.699219 0.527344 L 42.699219 50.214844 L 0.617188 50.214844 Z M 0.617188 0.527344 " clip-rule="nonzero"/></clipPath><clipPath id="c79574cd62"><rect x="0" width="43" y="0" height="51"/></clipPath><clipPath id="424cb2742e"><path d="M 122.699219 450.214844 L 162.566406 450.214844 L 162.566406 499.902344 L 122.699219 499.902344 Z M 122.699219 450.214844 " clip-rule="nonzero"/></clipPath><clipPath id="d288ae01cb"><path d="M 0.699219 0.214844 L 40.566406 0.214844 L 40.566406 49.902344 L 0.699219 49.902344 Z M 0.699219 0.214844 " clip-rule="nonzero"/></clipPath><clipPath id="eca84720bc"><rect x="0" width="41" y="0" height="50"/></clipPath><clipPath id="b3fbe3076b"><path d="M 162.566406 499.902344 L 202.433594 499.902344 L 202.433594 549.589844 L 162.566406 549.589844 Z M 162.566406 499.902344 " clip-rule="nonzero"/></clipPath><clipPath id="fcdb7e6a1c"><path d="M 0.566406 0.902344 L 40.433594 0.902344 L 40.433594 50.589844 L 0.566406 50.589844 Z M 0.566406 0.902344 " clip-rule="nonzero"/></clipPath><clipPath id="d83aed01bf"><rect x="0" width="41" y="0" height="51"/></clipPath><clipPath id="cb305cb20b"><path d="M 120.484375 549.589844 L 160.351562 549.589844 L 160.351562 630 L 120.484375 630 Z M 120.484375 549.589844 " clip-rule="nonzero"/></clipPath><clipPath id="fb580666e2"><path d="M 0.484375 0.589844 L 40.351562 0.589844 L 40.351562 81 L 0.484375 81 Z M 0.484375 0.589844 " clip-rule="nonzero"/></clipPath><clipPath id="21bc7038d1"><rect x="0" width="41" y="0" height="81"/></clipPath><clipPath id="8d68140b44"><rect x="0" width="203" y="0" height="630"/></clipPath><clipPath id="141052b63f"><rect x="0" width="203" y="0" height="630"/></clipPath><mask id="3b8443c9ce"><g filter="url(#2d1fae55df)"><rect x="-144" width="1728" fill="#000000" y="-80.999999" height="971.999992" fill-opacity="0.49"/></g></mask><clipPath id="a1d22ac246"><path d="M 0 0 L 214.558594 0 L 214.558594 618 L 0 618 Z M 0 0 " clip-rule="nonzero"/></clipPath><clipPath id="5c0bacc98c"><path d="M 0 0.03125 L 13.996094 0.03125 L 13.996094 150.921875 L 0 150.921875 Z M 0 0.03125 " clip-rule="nonzero"/></clipPath><clipPath id="2f16130e92"><path d="M 0 0.03125 L 13.996094 0.03125 L 13.996094 150.921875 L 0 150.921875 Z M 0 0.03125 " clip-rule="nonzero"/></clipPath><clipPath id="cd052f5549"><rect x="0" width="14" y="0" height="151"/></clipPath><clipPath id="a52adc0ab2"><path d="M 12.886719 100.570312 L 52.753906 100.570312 L 52.753906 251.464844 L 12.886719 251.464844 Z M 12.886719 100.570312 " clip-rule="nonzero"/></clipPath><clipPath id="44299213bf"><path d="M 0.886719 0.570312 L 40.753906 0.570312 L 40.753906 151.464844 L 0.886719 151.464844 Z M 0.886719 0.570312 " clip-rule="nonzero"/></clipPath><clipPath id="fa50bbfcd2"><rect x="0" width="41" y="0" height="152"/></clipPath><clipPath id="0e3629fad2"><path d="M 50.054688 199.949219 L 92.617188 199.949219 L 92.617188 251.464844 L 50.054688 251.464844 Z M 50.054688 199.949219 " clip-rule="nonzero"/></clipPath><clipPath id="0765075f35"><path d="M 0.0546875 0.949219 L 42.617188 0.949219 L 42.617188 52.464844 L 0.0546875 52.464844 Z M 0.0546875 0.949219 " clip-rule="nonzero"/></clipPath><clipPath id="5a85ced5a8"><rect x="0" width="43" y="0" height="53"/></clipPath><clipPath id="a3d21a4492"><path d="M 92.617188 251.464844 L 132.484375 251.464844 L 132.484375 350.839844 L 92.617188 350.839844 Z M 92.617188 251.464844 " clip-rule="nonzero"/></clipPath><clipPath id="01cfadcce2"><path d="M 0.617188 0.464844 L 40.484375 0.464844 L 40.484375 99.839844 L 0.617188 99.839844 Z M 0.617188 0.464844 " clip-rule="nonzero"/></clipPath><clipPath id="6a4df34db6"><rect x="0" width="41" y="0" height="100"/></clipPath><clipPath id="0cbec172cd"><path d="M 54.96875 350.839844 L 94.835938 350.839844 L 94.835938 450.214844 L 54.96875 450.214844 Z M 54.96875 350.839844 " clip-rule="nonzero"/></clipPath><clipPath id="014465cdf5"><path d="M 0.96875 0.839844 L 40.835938 0.839844 L 40.835938 100.214844 L 0.96875 100.214844 Z M 0.96875 0.839844 " clip-rule="nonzero"/></clipPath><clipPath id="d2a76b919d"><rect x="0" width="41" y="0" height="101"/></clipPath><clipPath id="83f010e5df"><path d="M 92.617188 400.527344 L 134.699219 400.527344 L 134.699219 450.214844 L 92.617188 450.214844 Z M 92.617188 400.527344 " clip-rule="nonzero"/></clipPath><clipPath id="adacac1e8d"><path d="M 0.617188 0.527344 L 42.699219 0.527344 L 42.699219 50.214844 L 0.617188 50.214844 Z M 0.617188 0.527344 " clip-rule="nonzero"/></clipPath><clipPath id="3638bec8d7"><rect x="0" width="43" y="0" height="51"/></clipPath><clipPath id="4389f7fe01"><path d="M 134.699219 450.214844 L 174.566406 450.214844 L 174.566406 499.902344 L 134.699219 499.902344 Z M 134.699219 450.214844 " clip-rule="nonzero"/></clipPath><clipPath id="6a9320d4e1"><path d="M 0.699219 0.214844 L 40.566406 0.214844 L 40.566406 49.902344 L 0.699219 49.902344 Z M 0.699219 0.214844 " clip-rule="nonzero"/></clipPath><clipPath id="6a2f1b99f3"><rect x="0" width="41" y="0" height="50"/></clipPath><clipPath id="c1619c2718"><path d="M 174.566406 499.902344 L 214.433594 499.902344 L 214.433594 549.589844 L 174.566406 549.589844 Z M 174.566406 499.902344 " clip-rule="nonzero"/></clipPath><clipPath id="a81ca8351d"><path d="M 0.566406 0.902344 L 40.433594 0.902344 L 40.433594 50.589844 L 0.566406 50.589844 Z M 0.566406 0.902344 " clip-rule="nonzero"/></clipPath><clipPath id="e2ddf732de"><rect x="0" width="41" y="0" height="51"/></clipPath><clipPath id="7c2f8e773d"><path d="M 132.484375 549.589844 L 172.351562 549.589844 L 172.351562 618 L 132.484375 618 Z M 132.484375 549.589844 " clip-rule="nonzero"/></clipPath><clipPath id="eba34eaffc"><path d="M 0.484375 0.589844 L 40.351562 0.589844 L 40.351562 69 L 0.484375 69 Z M 0.484375 0.589844 " clip-rule="nonzero"/></clipPath><clipPath id="69a4167e05"><rect x="0" width="41" y="0" height="69"/></clipPath><clipPath id="b2577722a8"><rect x="0" width="215" y="0" height="618"/></clipPath><clipPath id="4edcf045fb"><rect x="0" width="215" y="0" height="618"/></clipPath></defs><rect x="-144" width="1728" fill="#ffffff" y="-80.999999" height="971.999992" fill-opacity="1"/><rect x="-144" width="1728" fill="#eae1f2" y="-80.999999" height="971.999992" fill-opacity="1"/><g mask="url(#0588ef0f7e)"><g transform="matrix(1, 0, 0, 1, 302, 0.000000000000039746)"><g clip-path="url(#035f255619)"><g clip-path="url(#892d998891)"><g transform="matrix(1, 0, 0, 1, 0, 0.000000000000039746)"><g clip-path="url(#95170ff09e)"><g clip-path="url(#447c64c3fb)"><g transform="matrix(1, 0, 0, 1, 276, 659)"><g clip-path="url(#a5de4f9336)"><g clip-path="url(#383c8a9418)"><path fill="#bd1f2d" d="M 41.492188 151 L 0.832031 151 L 0.832031 0.109375 L 41.492188 0.109375 Z M 41.492188 151 " fill-opacity="1" fill-rule="nonzero"/></g></g></g></g><g clip-path="url(#548006c9d0)"><g transform="matrix(1, 0, 0, 1, 238, 558)"><g clip-path="url(#228ae7e84a)"><g clip-path="url(#1b329aa7a4)"><path fill="#bd1f2d" d="M 39.929688 151.457031 L 0.351562 151.457031 L 0.351562 0.554688 L 39.929688 0.554688 Z M 39.929688 151.457031 " fill-opacity="1" fill-rule="nonzero"/></g></g></g></g><g clip-path="url(#3dabb57407)"><g transform="matrix(1, 0, 0, 1, 198, 558)"><g clip-path="url(#f778edc24b)"><g clip-path="url(#489340a1f2)"><path fill="#bd1f2d" d="M 43.03125 52.082031 L 0.769531 52.082031 L 0.769531 0.578125 L 43.03125 0.578125 Z M 43.03125 52.082031 " fill-opacity="1" fill-rule="nonzero"/></g></g></g></g><g clip-path="url(#f021a0620f)"><g transform="matrix(1, 0, 0, 1, 159, 459)"><g clip-path="url(#4e23c49900)"><g clip-path="url(#7ce6b3475f)"><path fill="#bd1f2d" d="M 39.769531 99.566406 L 0.1875 99.566406 L 0.1875 0.148438 L 39.769531 0.148438 Z M 39.769531 99.566406 " fill-opacity="1" fill-rule="nonzero"/></g></g></g></g><g clip-path="url(#b7c6bfda41)"><g transform="matrix(1, 0, 0, 1, 196, 359)"><g clip-path="url(#6d1893836a)"><g clip-path="url(#7ffbae46fe)"><path fill="#bd1f2d" d="M 40.148438 100.191406 L 0.570312 100.191406 L 0.570312 0.773438 L 40.148438 0.773438 Z M 40.148438 100.191406 " fill-opacity="1" fill-rule="nonzero"/></g></g></g></g><g clip-path="url(#3bdba3850c)"><g transform="matrix(1, 0, 0, 1, 156, 359)"><g clip-path="url(#0340c69e48)"><g clip-path="url(#22f446d562)"><path fill="#bd1f2d" d="M 42.769531 50.503906 L 0.988281 50.503906 L 0.988281 0.886719 L 42.769531 0.886719 Z M 42.769531 50.503906 " fill-opacity="1" fill-rule="nonzero"/></g></g></g></g><g clip-path="url(#666a37a204)"><g transform="matrix(1, 0, 0, 1, 117, 310)"><g clip-path="url(#b20edab323)"><g clip-path="url(#c7ffcb6699)"><path fill="#bd1f2d" d="M 39.988281 49.816406 L 0.40625 49.816406 L 0.40625 0.183594 L 39.988281 0.183594 Z M 39.988281 49.816406 " fill-opacity="1" fill-rule="nonzero"/></g></g></g></g><g clip-path="url(#bea853390d)"><g transform="matrix(1, 0, 0, 1, 77, 260)"><g clip-path="url(#c008feffec)"><g clip-path="url(#99a83d133b)"><path fill="#bd1f2d" d="M 40.40625 50.128906 L 0.828125 50.128906 L 0.828125 0.496094 L 40.40625 0.496094 Z M 40.40625 50.128906 " fill-opacity="1" fill-rule="nonzero"/></g></g></g></g><g clip-path="url(#0988158a00)"><g transform="matrix(1, 0, 0, 1, 119, 160)"><g clip-path="url(#e1529d8031)"><g clip-path="url(#3a4620e917)"><path fill="#bd1f2d" d="M 40.1875 100.441406 L 0.609375 100.441406 L 0.609375 0.25 L 40.1875 0.25 Z M 40.1875 100.441406 " fill-opacity="1" fill-rule="nonzero"/></g></g></g></g><g clip-path="url(#1d4e92072d)"><g transform="matrix(1, 0, 0, 1, 77, 107)"><g clip-path="url(#bebe69966d)"><g clip-path="url(#520751b682)"><path fill="#bd1f2d" d="M 42.609375 54.691406 L 0.828125 54.691406 L 0.828125 0.832031 L 42.609375 0.832031 Z M 42.609375 54.691406 " fill-opacity="1" fill-rule="nonzero"/></g></g></g></g><g clip-path="url(#d807e4f7a3)"><g transform="matrix(1, 0, 0, 1, 40, 61)"><g clip-path="url(#fac8688c9e)"><g clip-path="url(#780807c594)"><path fill="#bd1f2d" d="M 40.027344 50.355469 L 0.445312 50.355469 L 0.445312 -0.046875 L 40.027344 -0.046875 Z M 40.027344 50.355469 " fill-opacity="1" fill-rule="nonzero"/></g></g></g></g><g clip-path="url(#32beaa3ccd)"><g transform="matrix(1, 0, 0, 1, 0, 0.000000000000039746)"><g clip-path="url(#5a58a214a1)"><g clip-path="url(#9252a5e170)"><path fill="#bd1f2d" d="M 40.445312 61.023438 L 0.867188 61.023438 L 0.867188 -0.0507812 L 40.445312 -0.0507812 Z M 40.445312 61.023438 " fill-opacity="1" fill-rule="nonzero"/></g></g></g></g></g></g></g></g></g></g><g mask="url(#103102dae0)"><g transform="matrix(1, 0, 0, 1, 1193, 0.000000000000039746)"><g clip-path="url(#8f5d5f7118)"><g clip-path="url(#3a88e488b8)"><g transform="matrix(1, 0, 0, 1, 0, 0.000000000000039746)"><g clip-path="url(#a6d660b4ab)"><g clip-path="url(#5ac38c6409)"><g transform="matrix(1, 0, 0, 1, 0, 0.000000000000039746)"><g clip-path="url(#6db010b18e)"><g clip-path="url(#295a052ec0)"><path fill="#bd1f2d" d="M 0.546875 -12 L 41.5 -12 L 41.5 138.855469 L 0.546875 138.855469 Z M 0.546875 -12 " fill-opacity="1" fill-rule="nonzero"/></g></g></g></g><g clip-path="url(#50141b4505)"><g transform="matrix(1, 0, 0, 1, 40, 88)"><g clip-path="url(#650cac6152)"><g clip-path="url(#283933f171)"><path fill="#bd1f2d" d="M 0.390625 0.542969 L 40.257812 0.542969 L 40.257812 151.441406 L 0.390625 151.441406 Z M 0.390625 0.542969 " fill-opacity="1" fill-rule="nonzero"/></g></g></g></g><g clip-path="url(#b40cff13a9)"><g transform="matrix(1, 0, 0, 1, 77, 187)"><g clip-path="url(#a33c81c4b6)"><g clip-path="url(#bd455f8342)"><path fill="#bd1f2d" d="M 0.558594 0.917969 L 43.125 0.917969 L 43.125 52.460938 L 0.558594 52.460938 Z M 0.558594 0.917969 " fill-opacity="1" fill-rule="nonzero"/></g></g></g></g><g clip-path="url(#6309a67ce3)"><g transform="matrix(1, 0, 0, 1, 120, 239)"><g clip-path="url(#88847e415e)"><g clip-path="url(#9f5a5d74dd)"><path fill="#bd1f2d" d="M 0.125 0.433594 L 39.988281 0.433594 L 39.988281 99.789062 L 0.125 99.789062 Z M 0.125 0.433594 " fill-opacity="1" fill-rule="nonzero"/></g></g></g></g><g clip-path="url(#02cfa5571b)"><g transform="matrix(1, 0, 0, 1, 82, 338)"><g clip-path="url(#e611c602f8)"><g clip-path="url(#d151fd7125)"><path fill="#bd1f2d" d="M 0.472656 0.808594 L 40.339844 0.808594 L 40.339844 100.164062 L 0.472656 100.164062 Z M 0.472656 0.808594 " fill-opacity="1" fill-rule="nonzero"/></g></g></g></g><g clip-path="url(#5446a2b104)"><g transform="matrix(1, 0, 0, 1, 120, 388)"><g clip-path="url(#ba393ccc3e)"><g clip-path="url(#e5e48cf1a1)"><path fill="#bd1f2d" d="M 0.125 0.496094 L 42.207031 0.496094 L 42.207031 50.140625 L 0.125 50.140625 Z M 0.125 0.496094 " fill-opacity="1" fill-rule="nonzero"/></g></g></g></g><g clip-path="url(#928d131bba)"><g transform="matrix(1, 0, 0, 1, 162, 438)"><g clip-path="url(#da7809ff5a)"><g clip-path="url(#f349676cb7)"><path fill="#bd1f2d" d="M 0.207031 0.183594 L 40.070312 0.183594 L 40.070312 49.859375 L 0.207031 49.859375 Z M 0.207031 0.183594 " fill-opacity="1" fill-rule="nonzero"/></g></g></g></g><g clip-path="url(#66043032cd)"><g transform="matrix(1, 0, 0, 1, 202, 487)"><g clip-path="url(#d202674972)"><g clip-path="url(#8c96c12079)"><path fill="#bd1f2d" d="M 0.0703125 0.871094 L 39.9375 0.871094 L 39.9375 50.546875 L 0.0703125 50.546875 Z M 0.0703125 0.871094 " fill-opacity="1" fill-rule="nonzero"/></g></g></g></g><g clip-path="url(#21842ade79)"><g transform="matrix(1, 0, 0, 1, 159, 537)"><g clip-path="url(#8eabae46b2)"><g clip-path="url(#874bb7435e)"><path fill="#bd1f2d" d="M 0.988281 0.558594 L 40.855469 0.558594 L 40.855469 100.691406 L 0.988281 100.691406 Z M 0.988281 0.558594 " fill-opacity="1" fill-rule="nonzero"/></g></g></g></g><g clip-path="url(#c7d85f4dab)"><g transform="matrix(1, 0, 0, 1, 199, 636)"><g clip-path="url(#b06e91034d)"><g clip-path="url(#75ed97f72f)"><path fill="#bd1f2d" d="M 0.855469 0.308594 L 42.9375 0.308594 L 42.9375 54.0625 L 0.855469 54.0625 Z M 0.855469 0.308594 " fill-opacity="1" fill-rule="nonzero"/></g></g></g></g><g clip-path="url(#6984608396)"><g transform="matrix(1, 0, 0, 1, 239, 686)"><g clip-path="url(#98a353b6a0)"><g clip-path="url(#810d3e3073)"><path fill="#bd1f2d" d="M 0.722656 0.644531 L 40.585938 0.644531 L 40.585938 50.941406 L 0.722656 50.941406 Z M 0.722656 0.644531 " fill-opacity="1" fill-rule="nonzero"/></g></g></g></g></g></g></g></g></g></g><g mask="url(#94ebcef2ef)"><g transform="matrix(1, 0, 0, 1, 1205, 0.000000000000039746)"><g clip-path="url(#4df181c073)"><g clip-path="url(#f2e4171891)"><g transform="matrix(1, 0, 0, 1, 0, 0.000000000000039746)"><g clip-path="url(#aeb3452dac)"><g clip-path="url(#b20ba57441)"><g transform="matrix(1, 0, 0, 1, 0, 0.000000000000039746)"><g clip-path="url(#0c2f8de377)"><g clip-path="url(#1809cdaeeb)"><path fill="#bd1f2d" d="M 0.546875 0 L 41.5 0 L 41.5 150.855469 L 0.546875 150.855469 Z M 0.546875 0 " fill-opacity="1" fill-rule="nonzero"/></g></g></g></g><g clip-path="url(#1b1f56fc01)"><g transform="matrix(1, 0, 0, 1, 40, 100)"><g clip-path="url(#412c732399)"><g clip-path="url(#6dcc23a465)"><path fill="#bd1f2d" d="M 0.390625 0.542969 L 40.257812 0.542969 L 40.257812 151.441406 L 0.390625 151.441406 Z M 0.390625 0.542969 " fill-opacity="1" fill-rule="nonzero"/></g></g></g></g><g clip-path="url(#db051b5890)"><g transform="matrix(1, 0, 0, 1, 77, 199)"><g clip-path="url(#df3949b548)"><g clip-path="url(#d39975a5c2)"><path fill="#bd1f2d" d="M 0.558594 0.917969 L 43.125 0.917969 L 43.125 52.460938 L 0.558594 52.460938 Z M 0.558594 0.917969 " fill-opacity="1" fill-rule="nonzero"/></g></g></g></g><g clip-path="url(#55967e9782)"><g transform="matrix(1, 0, 0, 1, 120, 251)"><g clip-path="url(#de53c0cdad)"><g clip-path="url(#ff1ecc6b7f)"><path fill="#bd1f2d" d="M 0.125 0.433594 L 39.988281 0.433594 L 39.988281 99.789062 L 0.125 99.789062 Z M 0.125 0.433594 " fill-opacity="1" fill-rule="nonzero"/></g></g></g></g><g clip-path="url(#20200fbeb9)"><g transform="matrix(1, 0, 0, 1, 82, 350)"><g clip-path="url(#50bff75abc)"><g clip-path="url(#75d30b2c9c)"><path fill="#bd1f2d" d="M 0.472656 0.808594 L 40.339844 0.808594 L 40.339844 100.164062 L 0.472656 100.164062 Z M 0.472656 0.808594 " fill-opacity="1" fill-rule="nonzero"/></g></g></g></g><g clip-path="url(#e469e0e52a)"><g transform="matrix(1, 0, 0, 1, 120, 400)"><g clip-path="url(#251ac85399)"><g clip-path="url(#a876c9ec34)"><path fill="#bd1f2d" d="M 0.125 0.496094 L 42.207031 0.496094 L 42.207031 50.140625 L 0.125 50.140625 Z M 0.125 0.496094 " fill-opacity="1" fill-rule="nonzero"/></g></g></g></g><g clip-path="url(#54205d6739)"><g transform="matrix(1, 0, 0, 1, 162, 450)"><g clip-path="url(#3783382576)"><g clip-path="url(#765f978eff)"><path fill="#bd1f2d" d="M 0.207031 0.183594 L 40.070312 0.183594 L 40.070312 49.859375 L 0.207031 49.859375 Z M 0.207031 0.183594 " fill-opacity="1" fill-rule="nonzero"/></g></g></g></g><g clip-path="url(#d8b2109043)"><g transform="matrix(1, 0, 0, 1, 202, 499)"><g clip-path="url(#77dfa79608)"><g clip-path="url(#7242155750)"><path fill="#bd1f2d" d="M 0.0703125 0.871094 L 39.9375 0.871094 L 39.9375 50.546875 L 0.0703125 50.546875 Z M 0.0703125 0.871094 " fill-opacity="1" fill-rule="nonzero"/></g></g></g></g><g clip-path="url(#f487d2e445)"><g transform="matrix(1, 0, 0, 1, 159, 549)"><g clip-path="url(#3054089b64)"><g clip-path="url(#6e92d66364)"><path fill="#bd1f2d" d="M 0.988281 0.558594 L 40.855469 0.558594 L 40.855469 100.691406 L 0.988281 100.691406 Z M 0.988281 0.558594 " fill-opacity="1" fill-rule="nonzero"/></g></g></g></g><g clip-path="url(#e282d10bfc)"><g transform="matrix(1, 0, 0, 1, 199, 648)"><g clip-path="url(#e3ee83a1fb)"><g clip-path="url(#2bd8fcbd87)"><path fill="#bd1f2d" d="M 0.855469 0.308594 L 42.9375 0.308594 L 42.9375 54.0625 L 0.855469 54.0625 Z M 0.855469 0.308594 " fill-opacity="1" fill-rule="nonzero"/></g></g></g></g></g></g></g></g></g></g><g mask="url(#76beb53b5d)"><g transform="matrix(1, 0, 0, 1, 314, 11)"><g clip-path="url(#3a05f97103)"><g clip-path="url(#ff1948230b)"><g transform="matrix(1, 0, 0, 1, 0, 0.00000000000003908)"><g clip-path="url(#7ce8ba6bf0)"><g clip-path="url(#1743b68d15)"><g transform="matrix(1, 0, 0, 1, 276, 660)"><g clip-path="url(#b13274c224)"><g clip-path="url(#2e9011dd8c)"><path fill="#bd1f2d" d="M 41.492188 151 L 0.832031 151 L 0.832031 0.109375 L 41.492188 0.109375 Z M 41.492188 151 " fill-opacity="1" fill-rule="nonzero"/></g></g></g></g><g clip-path="url(#8adb1b4d14)"><g transform="matrix(1, 0, 0, 1, 238, 559)"><g clip-path="url(#d1deeb7b1d)"><g clip-path="url(#66efbeb8dc)"><path fill="#bd1f2d" d="M 39.929688 151.457031 L 0.351562 151.457031 L 0.351562 0.554688 L 39.929688 0.554688 Z M 39.929688 151.457031 " fill-opacity="1" fill-rule="nonzero"/></g></g></g></g><g clip-path="url(#4ae18439b2)"><g transform="matrix(1, 0, 0, 1, 198, 559)"><g clip-path="url(#85f0ae397b)"><g clip-path="url(#376206b239)"><path fill="#bd1f2d" d="M 43.03125 52.082031 L 0.769531 52.082031 L 0.769531 0.578125 L 43.03125 0.578125 Z M 43.03125 52.082031 " fill-opacity="1" fill-rule="nonzero"/></g></g></g></g><g clip-path="url(#c6782a7494)"><g transform="matrix(1, 0, 0, 1, 159, 460)"><g clip-path="url(#683e22ad15)"><g clip-path="url(#915ebc8905)"><path fill="#bd1f2d" d="M 39.769531 99.566406 L 0.1875 99.566406 L 0.1875 0.148438 L 39.769531 0.148438 Z M 39.769531 99.566406 " fill-opacity="1" fill-rule="nonzero"/></g></g></g></g><g clip-path="url(#2d5e3f1aa2)"><g transform="matrix(1, 0, 0, 1, 196, 360)"><g clip-path="url(#7b4f9ae0dd)"><g clip-path="url(#26254f5907)"><path fill="#bd1f2d" d="M 40.148438 100.191406 L 0.570312 100.191406 L 0.570312 0.773438 L 40.148438 0.773438 Z M 40.148438 100.191406 " fill-opacity="1" fill-rule="nonzero"/></g></g></g></g><g clip-path="url(#e5270c99e6)"><g transform="matrix(1, 0, 0, 1, 156, 360)"><g clip-path="url(#fdcbdd3129)"><g clip-path="url(#a047ac8d08)"><path fill="#bd1f2d" d="M 42.769531 50.503906 L 0.988281 50.503906 L 0.988281 0.886719 L 42.769531 0.886719 Z M 42.769531 50.503906 " fill-opacity="1" fill-rule="nonzero"/></g></g></g></g><g clip-path="url(#b0c42dba3e)"><g transform="matrix(1, 0, 0, 1, 117, 311)"><g clip-path="url(#ef426b3288)"><g clip-path="url(#72d650294c)"><path fill="#bd1f2d" d="M 39.988281 49.816406 L 0.40625 49.816406 L 0.40625 0.183594 L 39.988281 0.183594 Z M 39.988281 49.816406 " fill-opacity="1" fill-rule="nonzero"/></g></g></g></g><g clip-path="url(#8c2326a929)"><g transform="matrix(1, 0, 0, 1, 77, 261)"><g clip-path="url(#f5736178b0)"><g clip-path="url(#6a1e1117cd)"><path fill="#bd1f2d" d="M 40.40625 50.128906 L 0.828125 50.128906 L 0.828125 0.496094 L 40.40625 0.496094 Z M 40.40625 50.128906 " fill-opacity="1" fill-rule="nonzero"/></g></g></g></g><g clip-path="url(#861ef97b45)"><g transform="matrix(1, 0, 0, 1, 119, 161)"><g clip-path="url(#edd56c11bb)"><g clip-path="url(#abcaf76ff0)"><path fill="#bd1f2d" d="M 40.1875 100.441406 L 0.609375 100.441406 L 0.609375 0.25 L 40.1875 0.25 Z M 40.1875 100.441406 " fill-opacity="1" fill-rule="nonzero"/></g></g></g></g><g clip-path="url(#704d5fabc1)"><g transform="matrix(1, 0, 0, 1, 77, 108)"><g clip-path="url(#0f376191c0)"><g clip-path="url(#69903b28aa)"><path fill="#bd1f2d" d="M 42.609375 54.691406 L 0.828125 54.691406 L 0.828125 0.832031 L 42.609375 0.832031 Z M 42.609375 54.691406 " fill-opacity="1" fill-rule="nonzero"/></g></g></g></g><g clip-path="url(#636cfe7443)"><g transform="matrix(1, 0, 0, 1, 40, 62)"><g clip-path="url(#ac745076d5)"><g clip-path="url(#1f6efea429)"><path fill="#bd1f2d" d="M 40.027344 50.355469 L 0.445312 50.355469 L 0.445312 -0.046875 L 40.027344 -0.046875 Z M 40.027344 50.355469 " fill-opacity="1" fill-rule="nonzero"/></g></g></g></g><g clip-path="url(#11346505fa)"><g transform="matrix(1, 0, 0, 1, 0, 1)"><g clip-path="url(#eed11979fd)"><g clip-path="url(#8a51bb7238)"><path fill="#bd1f2d" d="M 40.445312 61.023438 L 0.867188 61.023438 L 0.867188 -0.0507812 L 40.445312 -0.0507812 Z M 40.445312 61.023438 " fill-opacity="1" fill-rule="nonzero"/></g></g></g></g></g></g></g></g></g></g><g mask="url(#67bd03d983)"><g transform="matrix(1, 0, 0, 1, 934, 367)"><g clip-path="url(#a9f9f1ca99)"><g clip-path="url(#9c1d34ca80)"><g><g clip-path="url(#f2414ed435)"><g clip-path="url(#56d07f5bb4)"><g transform="matrix(1, 0, 0, 1, 0, 1)"><g clip-path="url(#6d7e87213d)"><g clip-path="url(#d2933442a4)"><path fill="#bd1f2d" d="M 0.644531 0.0625 L 41.597656 0.0625 L 41.597656 150.917969 L 0.644531 150.917969 Z M 0.644531 0.0625 " fill-opacity="1" fill-rule="nonzero"/></g></g></g></g><g clip-path="url(#c8b7d76e7d)"><g transform="matrix(1, 0, 0, 1, 40, 101)"><g clip-path="url(#5851d04fdd)"><g clip-path="url(#93a64d4197)"><path fill="#bd1f2d" d="M 0.488281 0.605469 L 40.355469 0.605469 L 40.355469 151.503906 L 0.488281 151.503906 Z M 0.488281 0.605469 " fill-opacity="1" fill-rule="nonzero"/></g></g></g></g><g clip-path="url(#dc3c402873)"><g transform="matrix(1, 0, 0, 1, 77, 200)"><g clip-path="url(#d7b592f830)"><g clip-path="url(#387a091375)"><path fill="#bd1f2d" d="M 0.65625 0.980469 L 43.21875 0.980469 L 43.21875 52.523438 L 0.65625 52.523438 Z M 0.65625 0.980469 " fill-opacity="1" fill-rule="nonzero"/></g></g></g></g><g clip-path="url(#5c62733f63)"><g transform="matrix(1, 0, 0, 1, 120, 252)"><g clip-path="url(#6089848fa7)"><g clip-path="url(#7eae422898)"><path fill="#bd1f2d" d="M 0.21875 0.496094 L 40.085938 0.496094 L 40.085938 99.851562 L 0.21875 99.851562 Z M 0.21875 0.496094 " fill-opacity="1" fill-rule="nonzero"/></g></g></g></g><g clip-path="url(#84d3e1e99d)"><g transform="matrix(1, 0, 0, 1, 82, 351)"><g clip-path="url(#afd27bd0a2)"><g clip-path="url(#1aa04f6b85)"><path fill="#bd1f2d" d="M 0.570312 0.871094 L 40.4375 0.871094 L 40.4375 100.226562 L 0.570312 100.226562 Z M 0.570312 0.871094 " fill-opacity="1" fill-rule="nonzero"/></g></g></g></g><g clip-path="url(#2eae7c2c08)"><g transform="matrix(1, 0, 0, 1, 120, 401)"><g clip-path="url(#ce9edcf6ad)"><g clip-path="url(#b7028c62cc)"><path fill="#bd1f2d" d="M 0.21875 0.558594 L 42.300781 0.558594 L 42.300781 50.203125 L 0.21875 50.203125 Z M 0.21875 0.558594 " fill-opacity="1" fill-rule="nonzero"/></g></g></g></g></g></g></g></g></g></g><g mask="url(#d27781a6df)"><g transform="matrix(1, 0, 0, 1, 946, 379)"><g clip-path="url(#d85690d3b5)"><g clip-path="url(#9ffd65e114)"><g><g clip-path="url(#2a0e2d1409)"><g clip-path="url(#0bb05c0093)"><g transform="matrix(1, 0, 0, 1, 0, 1)"><g clip-path="url(#040bbaa255)"><g clip-path="url(#02ad2f8562)"><path fill="#bd1f2d" d="M 0.644531 0.0625 L 41.597656 0.0625 L 41.597656 150.917969 L 0.644531 150.917969 Z M 0.644531 0.0625 " fill-opacity="1" fill-rule="nonzero"/></g></g></g></g><g clip-path="url(#1370735a5d)"><g transform="matrix(1, 0, 0, 1, 40, 101)"><g clip-path="url(#629bcb5613)"><g clip-path="url(#dfb8ad73c2)"><path fill="#bd1f2d" d="M 0.488281 0.605469 L 40.355469 0.605469 L 40.355469 151.503906 L 0.488281 151.503906 Z M 0.488281 0.605469 " fill-opacity="1" fill-rule="nonzero"/></g></g></g></g><g clip-path="url(#f3e56259cc)"><g transform="matrix(1, 0, 0, 1, 77, 200)"><g clip-path="url(#0eb81e8626)"><g clip-path="url(#620f28be36)"><path fill="#bd1f2d" d="M 0.65625 0.980469 L 43.21875 0.980469 L 43.21875 52.523438 L 0.65625 52.523438 Z M 0.65625 0.980469 " fill-opacity="1" fill-rule="nonzero"/></g></g></g></g><g clip-path="url(#23b7eee284)"><g transform="matrix(1, 0, 0, 1, 120, 252)"><g clip-path="url(#c69f35a1c5)"><g clip-path="url(#08de89377c)"><path fill="#bd1f2d" d="M 0.21875 0.496094 L 40.085938 0.496094 L 40.085938 99.851562 L 0.21875 99.851562 Z M 0.21875 0.496094 " fill-opacity="1" fill-rule="nonzero"/></g></g></g></g><g clip-path="url(#f23d86090a)"><g transform="matrix(1, 0, 0, 1, 82, 351)"><g clip-path="url(#b47c79b7ee)"><g clip-path="url(#2f97f7fc84)"><path fill="#bd1f2d" d="M 0.570312 0.871094 L 40.4375 0.871094 L 40.4375 100.226562 L 0.570312 100.226562 Z M 0.570312 0.871094 " fill-opacity="1" fill-rule="nonzero"/></g></g></g></g><g clip-path="url(#cff0c8c77f)"><g transform="matrix(1, 0, 0, 1, 120, 401)"><g clip-path="url(#593d4c9263)"><g clip-path="url(#bbd3c8774c)"><path fill="#bd1f2d" d="M 0.21875 0.558594 L 42.300781 0.558594 L 42.300781 50.203125 L 0.21875 50.203125 Z M 0.21875 0.558594 " fill-opacity="1" fill-rule="nonzero"/></g></g></g></g></g></g></g></g></g></g><g mask="url(#75243c1717)"><g transform="matrix(1, 0, 0, 1, 821, 0.000000000000039746)"><g clip-path="url(#f78489740e)"><g clip-path="url(#49dcd66f3b)"><g transform="matrix(1, 0, 0, 1, 0, 0.000000000000039746)"><g clip-path="url(#8cb88c357d)"><g clip-path="url(#d77626d8a9)"><g transform="matrix(1, 0, 0, 1, 119, 220)"><g clip-path="url(#43bc7859b9)"><g clip-path="url(#ae683d357e)"><path fill="#bd1f2d" d="M 41.324219 151.0625 L 0.371094 151.0625 L 0.371094 0.207031 L 41.324219 0.207031 Z M 41.324219 151.0625 " fill-opacity="1" fill-rule="nonzero"/></g></g></g></g><g clip-path="url(#9835211cde)"><g transform="matrix(1, 0, 0, 1, 80, 119)"><g clip-path="url(#5a63b7d16a)"><g clip-path="url(#b1c2303733)"><path fill="#bd1f2d" d="M 40.480469 151.519531 L 0.613281 151.519531 L 0.613281 0.621094 L 40.480469 0.621094 Z M 40.480469 151.519531 " fill-opacity="1" fill-rule="nonzero"/></g></g></g></g><g clip-path="url(#3e5f290ee3)"><g transform="matrix(1, 0, 0, 1, 40, 119)"><g clip-path="url(#926241d6fc)"><g clip-path="url(#c1ae15a8cb)"><path fill="#bd1f2d" d="M 43.3125 52.144531 L 0.746094 52.144531 L 0.746094 0.601562 L 43.3125 0.601562 Z M 43.3125 52.144531 " fill-opacity="1" fill-rule="nonzero"/></g></g></g></g><g clip-path="url(#ad62140df3)"><g transform="matrix(1, 0, 0, 1, 0, 20)"><g clip-path="url(#d6732c0363)"><g clip-path="url(#62969b7245)"><path fill="#bd1f2d" d="M 40.746094 99.628906 L 0.882812 99.628906 L 0.882812 0.277344 L 40.746094 0.277344 Z M 40.746094 99.628906 " fill-opacity="1" fill-rule="nonzero"/></g></g></g></g><g clip-path="url(#0e027bbf9b)"><g transform="matrix(1, 0, 0, 1, 38, 0.000000000000039746)"><g clip-path="url(#e941946dad)"><g clip-path="url(#2650a7b42d)"><path fill="#bd1f2d" d="M 40.398438 20.253906 L 0.53125 20.253906 L 0.53125 -79.097656 L 40.398438 -79.097656 Z M 40.398438 20.253906 " fill-opacity="1" fill-rule="nonzero"/></g></g></g></g></g></g></g></g></g></g><g mask="url(#e7a791103c)"><g transform="matrix(1, 0, 0, 1, 809, 0.000000000000039746)"><g clip-path="url(#2fe0ab2249)"><g clip-path="url(#64bf272b5f)"><g transform="matrix(1, 0, 0, 1, 0, 0.000000000000039746)"><g clip-path="url(#ad5e7624e6)"><g clip-path="url(#0b9e5bf86a)"><g transform="matrix(1, 0, 0, 1, 119, 208)"><g clip-path="url(#52e67861cf)"><g clip-path="url(#b0bdc26ebb)"><path fill="#bd1f2d" d="M 41.324219 151.0625 L 0.371094 151.0625 L 0.371094 0.207031 L 41.324219 0.207031 Z M 41.324219 151.0625 " fill-opacity="1" fill-rule="nonzero"/></g></g></g></g><g clip-path="url(#4774daca10)"><g transform="matrix(1, 0, 0, 1, 80, 107)"><g clip-path="url(#4ab45c65f5)"><g clip-path="url(#daaf2cf11f)"><path fill="#bd1f2d" d="M 40.480469 151.519531 L 0.613281 151.519531 L 0.613281 0.621094 L 40.480469 0.621094 Z M 40.480469 151.519531 " fill-opacity="1" fill-rule="nonzero"/></g></g></g></g><g clip-path="url(#cf02b0de5b)"><g transform="matrix(1, 0, 0, 1, 40, 107)"><g clip-path="url(#563adee885)"><g clip-path="url(#f5bf22a19b)"><path fill="#bd1f2d" d="M 43.3125 52.144531 L 0.746094 52.144531 L 0.746094 0.601562 L 43.3125 0.601562 Z M 43.3125 52.144531 " fill-opacity="1" fill-rule="nonzero"/></g></g></g></g><g clip-path="url(#3283080e38)"><g transform="matrix(1, 0, 0, 1, 0, 8)"><g clip-path="url(#38a4081270)"><g clip-path="url(#2844d98f91)"><path fill="#bd1f2d" d="M 40.746094 99.628906 L 0.882812 99.628906 L 0.882812 0.277344 L 40.746094 0.277344 Z M 40.746094 99.628906 " fill-opacity="1" fill-rule="nonzero"/></g></g></g></g><g clip-path="url(#06eced2fe6)"><g transform="matrix(1, 0, 0, 1, 38, 0.000000000000039746)"><g clip-path="url(#63d222e6d5)"><g clip-path="url(#5db97600d8)"><path fill="#bd1f2d" d="M 40.398438 8.253906 L 0.53125 8.253906 L 0.53125 -91.097656 L 40.398438 -91.097656 Z M 40.398438 8.253906 " fill-opacity="1" fill-rule="nonzero"/></g></g></g></g></g></g></g></g></g></g><g transform="matrix(1, 0, 0, 1, 179, 352)"><g clip-path="url(#3e62c721a9)"><g fill="#000000" fill-opacity="1"><g transform="translate(0.56288, 107.879893)"><g><path d="M 89.90625 -85.625 L 89.90625 -68.5 L 21.40625 -68.5 L 21.40625 -51.375 L 72.78125 -51.375 C 75.914062 -51.375 78.785156 -50.601562 81.390625 -49.0625 C 83.992188 -47.53125 86.0625 -45.460938 87.59375 -42.859375 C 89.132812 -40.253906 89.90625 -37.382812 89.90625 -34.25 L 89.90625 -17.125 C 89.90625 -13.988281 89.132812 -11.117188 87.59375 -8.515625 C 86.0625 -5.910156 83.992188 -3.835938 81.390625 -2.296875 C 78.785156 -0.765625 75.914062 0 72.78125 0 L 4.28125 0 L 4.28125 -17.125 L 72.78125 -17.125 L 72.78125 -34.25 L 21.40625 -34.25 C 18.269531 -34.25 15.398438 -35.015625 12.796875 -36.546875 C 10.191406 -38.085938 8.117188 -40.160156 6.578125 -42.765625 C 5.046875 -45.367188 4.28125 -48.238281 4.28125 -51.375 L 4.28125 -68.5 C 4.28125 -71.632812 5.046875 -74.503906 6.578125 -77.109375 C 8.117188 -79.710938 10.191406 -81.78125 12.796875 -83.3125 C 15.398438 -84.851562 18.269531 -85.625 21.40625 -85.625 Z M 89.90625 -85.625 "/></g></g></g><g fill="#000000" fill-opacity="1"><g transform="translate(94.541713, 107.879893)"><g><path d="M 89.90625 -85.625 L 89.90625 -68.5 L 21.40625 -68.5 L 21.40625 -51.375 L 89.90625 -51.375 L 89.90625 -34.25 L 21.40625 -34.25 L 21.40625 -17.125 L 89.90625 -17.125 L 89.90625 0 L 21.40625 0 C 18.269531 0 15.398438 -0.765625 12.796875 -2.296875 C 10.191406 -3.835938 8.117188 -5.910156 6.578125 -8.515625 C 5.046875 -11.117188 4.28125 -13.988281 4.28125 -17.125 L 4.28125 -68.5 C 4.28125 -71.632812 5.046875 -74.503906 6.578125 -77.109375 C 8.117188 -79.710938 10.191406 -81.78125 12.796875 -83.3125 C 15.398438 -84.851562 18.269531 -85.625 21.40625 -85.625 Z M 89.90625 -85.625 "/></g></g></g><g fill="#000000" fill-opacity="1"><g transform="translate(188.520545, 107.879893)"><g><path d="M 21.40625 -85.625 L 72.78125 -85.625 C 75.914062 -85.625 78.785156 -84.851562 81.390625 -83.3125 C 83.992188 -81.78125 86.0625 -79.710938 87.59375 -77.109375 C 89.132812 -74.503906 89.90625 -71.632812 89.90625 -68.5 L 89.90625 0 L 72.78125 0 L 72.78125 -34.25 L 21.40625 -34.25 L 21.40625 0 L 4.28125 0 L 4.28125 -68.5 C 4.28125 -71.632812 5.046875 -74.503906 6.578125 -77.109375 C 8.117188 -79.710938 10.191406 -81.78125 12.796875 -83.3125 C 15.398438 -84.851562 18.269531 -85.625 21.40625 -85.625 Z M 21.40625 -68.5 L 21.40625 -51.375 L 72.78125 -51.375 L 72.78125 -68.5 Z M 21.40625 -68.5 "/></g></g></g><g fill="#000000" fill-opacity="1"><g transform="translate(282.499388, 107.879893)"><g><path d="M 21.40625 -85.625 L 72.78125 -85.625 C 75.914062 -85.625 78.785156 -84.851562 81.390625 -83.3125 C 83.992188 -81.78125 86.0625 -79.710938 87.59375 -77.109375 C 89.132812 -74.503906 89.90625 -71.632812 89.90625 -68.5 L 89.90625 0 L 72.78125 0 L 72.78125 -68.5 L 55.65625 -68.5 L 55.65625 0 L 38.53125 0 L 38.53125 -68.5 L 21.40625 -68.5 L 21.40625 0 L 4.28125 0 L 4.28125 -68.5 C 4.28125 -71.632812 5.046875 -74.503906 6.578125 -77.109375 C 8.117188 -79.710938 10.191406 -81.78125 12.796875 -83.3125 C 15.398438 -84.851562 18.269531 -85.625 21.40625 -85.625 Z M 21.40625 -85.625 "/></g></g></g><g fill="#000000" fill-opacity="1"><g transform="translate(376.478211, 107.879893)"><g/></g></g><g fill="#000000" fill-opacity="1"><g transform="translate(423.360615, 107.879893)"><g><path d="M 89.90625 0 L 21.40625 0 C 18.269531 0 15.398438 -0.765625 12.796875 -2.296875 C 10.191406 -3.835938 8.117188 -5.910156 6.578125 -8.515625 C 5.046875 -11.117188 4.28125 -13.988281 4.28125 -17.125 L 4.28125 -68.5 C 4.28125 -71.632812 5.046875 -74.503906 6.578125 -77.109375 C 8.117188 -79.710938 10.191406 -81.78125 12.796875 -83.3125 C 15.398438 -84.851562 18.269531 -85.625 21.40625 -85.625 L 89.90625 -85.625 L 89.90625 -68.5 L 21.40625 -68.5 L 21.40625 -17.125 L 89.90625 -17.125 Z M 89.90625 0 "/></g></g></g><g fill="#000000" fill-opacity="1"><g transform="translate(517.339437, 107.879893)"><g><path d="M 21.40625 -85.625 L 72.78125 -85.625 C 75.914062 -85.625 78.785156 -84.851562 81.390625 -83.3125 C 83.992188 -81.78125 86.0625 -79.710938 87.59375 -77.109375 C 89.132812 -74.503906 89.90625 -71.632812 89.90625 -68.5 L 89.90625 0 L 72.78125 0 L 72.78125 -34.25 L 21.40625 -34.25 L 21.40625 0 L 4.28125 0 L 4.28125 -68.5 C 4.28125 -71.632812 5.046875 -74.503906 6.578125 -77.109375 C 8.117188 -79.710938 10.191406 -81.78125 12.796875 -83.3125 C 15.398438 -84.851562 18.269531 -85.625 21.40625 -85.625 Z M 21.40625 -68.5 L 21.40625 -51.375 L 72.78125 -51.375 L 72.78125 -68.5 Z M 21.40625 -68.5 "/></g></g></g><g fill="#000000" fill-opacity="1"><g transform="translate(611.31826, 107.879893)"><g><path d="M 89.90625 -68.5 L 89.90625 -51.375 C 89.90625 -48.238281 89.132812 -45.367188 87.59375 -42.765625 C 86.0625 -40.160156 83.992188 -38.085938 81.390625 -36.546875 C 78.785156 -35.015625 75.914062 -34.25 72.78125 -34.25 L 55.65625 -34.25 L 72.78125 -17.125 L 89.90625 -17.125 L 89.90625 0 L 69.359375 0 C 66.929688 0 64.863281 -0.851562 63.15625 -2.5625 L 31.46875 -34.25 L 21.40625 -34.25 L 21.40625 0 L 4.28125 0 L 4.28125 -85.625 L 72.78125 -85.625 C 75.914062 -85.625 78.785156 -84.851562 81.390625 -83.3125 C 83.992188 -81.78125 86.0625 -79.710938 87.59375 -77.109375 C 89.132812 -74.503906 89.90625 -71.632812 89.90625 -68.5 Z M 72.78125 -68.5 L 21.40625 -68.5 L 21.40625 -51.375 L 72.78125 -51.375 Z M 72.78125 -68.5 "/></g></g></g><g fill="#000000" fill-opacity="1"><g transform="translate(705.297123, 107.879893)"><g><path d="M 47.09375 0 C 43.238281 0 39.671875 -1.351562 36.390625 -4.0625 L 7.5 -28.90625 C 5.351562 -30.820312 4.28125 -33.101562 4.28125 -35.75 L 4.28125 -85.625 L 21.40625 -85.625 L 21.40625 -39.609375 L 47.09375 -17.453125 L 72.78125 -39.609375 L 72.78125 -85.625 L 89.90625 -85.625 L 89.796875 -35.75 C 89.796875 -33.039062 88.765625 -30.757812 86.703125 -28.90625 L 57.796875 -4.0625 C 54.660156 -1.351562 51.09375 0 47.09375 0 Z M 47.09375 0 "/></g></g></g><g fill="#000000" fill-opacity="1"><g transform="translate(799.275906, 107.879893)"><g><path d="M 89.90625 0 L 4.28125 0 L 4.28125 -17.125 L 38.53125 -17.125 L 38.53125 -68.5 L 4.28125 -68.5 L 4.28125 -85.625 L 89.90625 -85.625 L 89.90625 -68.5 L 55.65625 -68.5 L 55.65625 -17.125 L 89.90625 -17.125 Z M 89.90625 0 "/></g></g></g><g fill="#000000" fill-opacity="1"><g transform="translate(893.254768, 107.879893)"><g><path d="M 21.40625 0 L 4.28125 0 L 4.28125 -77.0625 C 4.28125 -79.414062 5.117188 -81.429688 6.796875 -83.109375 C 8.472656 -84.785156 10.488281 -85.625 12.84375 -85.625 C 15.195312 -85.625 17.226562 -84.769531 18.9375 -83.0625 L 72.78125 -29.21875 L 72.78125 -85.625 L 89.90625 -85.625 L 89.90625 -8.5625 C 89.90625 -6.207031 89.066406 -4.191406 87.390625 -2.515625 C 85.710938 -0.835938 83.695312 0 81.34375 0 C 78.988281 0 76.957031 -0.851562 75.25 -2.5625 L 21.40625 -56.40625 Z M 21.40625 0 "/></g></g></g><g fill="#000000" fill-opacity="1"><g transform="translate(987.233631, 107.879893)"><g><path d="M 89.90625 -85.625 L 89.90625 -68.5 L 21.40625 -68.5 L 21.40625 -17.125 L 72.78125 -17.125 L 72.78125 -34.25 L 38.53125 -34.25 L 38.53125 -51.375 L 89.90625 -51.375 L 89.90625 -17.125 C 89.90625 -14.050781 89.132812 -11.210938 87.59375 -8.609375 C 86.0625 -6.003906 84.007812 -3.914062 81.4375 -2.34375 C 78.875 -0.78125 75.988281 0 72.78125 0 L 21.40625 0 C 18.269531 0 15.398438 -0.765625 12.796875 -2.296875 C 10.191406 -3.835938 8.117188 -5.910156 6.578125 -8.515625 C 5.046875 -11.117188 4.28125 -13.988281 4.28125 -17.125 L 4.28125 -68.5 C 4.28125 -71.632812 5.046875 -74.503906 6.578125 -77.109375 C 8.117188 -79.710938 10.191406 -81.78125 12.796875 -83.3125 C 15.398438 -84.851562 18.269531 -85.625 21.40625 -85.625 Z M 89.90625 -85.625 "/></g></g></g></g></g><g mask="url(#5b14893671)"><g transform="matrix(1, 0, 0, 1, 0, 180)"><g clip-path="url(#141052b63f)"><g clip-path="url(#36f15c6b00)"><g transform="matrix(1, 0, 0, 1, 0, 0.000000000000028422)"><g clip-path="url(#8d68140b44)"><g clip-path="url(#61ce6463f9)"><g transform="matrix(1, 0, 0, 1, 0, 0.000000000000028422)"><g clip-path="url(#0b1e75e119)"><g clip-path="url(#4ab9e93f95)"><path fill="#bd1f2d" d="M -38.957031 0.03125 L 1.996094 0.03125 L 1.996094 150.886719 L -38.957031 150.886719 Z M -38.957031 0.03125 " fill-opacity="1" fill-rule="nonzero"/></g></g></g></g><g clip-path="url(#3dab4323d0)"><g transform="matrix(1, 0, 0, 1, 0, 100)"><g clip-path="url(#47625430d4)"><g clip-path="url(#79b6794d08)"><path fill="#bd1f2d" d="M 0.886719 0.570312 L 40.753906 0.570312 L 40.753906 151.46875 L 0.886719 151.46875 Z M 0.886719 0.570312 " fill-opacity="1" fill-rule="nonzero"/></g></g></g></g><g clip-path="url(#03556a1e9d)"><g transform="matrix(1, 0, 0, 1, 38, 199)"><g clip-path="url(#02b3933557)"><g clip-path="url(#73e037a875)"><path fill="#bd1f2d" d="M 0.0546875 0.949219 L 42.617188 0.949219 L 42.617188 52.492188 L 0.0546875 52.492188 Z M 0.0546875 0.949219 " fill-opacity="1" fill-rule="nonzero"/></g></g></g></g><g clip-path="url(#d068bab13c)"><g transform="matrix(1, 0, 0, 1, 80, 251)"><g clip-path="url(#9227df0ba4)"><g clip-path="url(#22a3e1af65)"><path fill="#bd1f2d" d="M 0.617188 0.464844 L 40.484375 0.464844 L 40.484375 99.816406 L 0.617188 99.816406 Z M 0.617188 0.464844 " fill-opacity="1" fill-rule="nonzero"/></g></g></g></g><g clip-path="url(#031b6e0180)"><g transform="matrix(1, 0, 0, 1, 42, 350)"><g clip-path="url(#b65fc75657)"><g clip-path="url(#2ca74db847)"><path fill="#bd1f2d" d="M 0.96875 0.839844 L 40.835938 0.839844 L 40.835938 100.191406 L 0.96875 100.191406 Z M 0.96875 0.839844 " fill-opacity="1" fill-rule="nonzero"/></g></g></g></g><g clip-path="url(#72a48da351)"><g transform="matrix(1, 0, 0, 1, 80, 400)"><g clip-path="url(#c79574cd62)"><g clip-path="url(#79a41aa109)"><path fill="#bd1f2d" d="M 0.617188 0.527344 L 42.699219 0.527344 L 42.699219 50.171875 L 0.617188 50.171875 Z M 0.617188 0.527344 " fill-opacity="1" fill-rule="nonzero"/></g></g></g></g><g clip-path="url(#424cb2742e)"><g transform="matrix(1, 0, 0, 1, 122, 450)"><g clip-path="url(#eca84720bc)"><g clip-path="url(#d288ae01cb)"><path fill="#bd1f2d" d="M 0.699219 0.214844 L 40.566406 0.214844 L 40.566406 49.890625 L 0.699219 49.890625 Z M 0.699219 0.214844 " fill-opacity="1" fill-rule="nonzero"/></g></g></g></g><g clip-path="url(#b3fbe3076b)"><g transform="matrix(1, 0, 0, 1, 162, 499)"><g clip-path="url(#d83aed01bf)"><g clip-path="url(#fcdb7e6a1c)"><path fill="#bd1f2d" d="M 0.566406 0.902344 L 40.433594 0.902344 L 40.433594 50.578125 L 0.566406 50.578125 Z M 0.566406 0.902344 " fill-opacity="1" fill-rule="nonzero"/></g></g></g></g><g clip-path="url(#cb305cb20b)"><g transform="matrix(1, 0, 0, 1, 120, 549)"><g clip-path="url(#21bc7038d1)"><g clip-path="url(#fb580666e2)"><path fill="#bd1f2d" d="M 0.484375 0.589844 L 40.351562 0.589844 L 40.351562 100.722656 L 0.484375 100.722656 Z M 0.484375 0.589844 " fill-opacity="1" fill-rule="nonzero"/></g></g></g></g></g></g></g></g></g></g><g mask="url(#3b8443c9ce)"><g transform="matrix(1, 0, 0, 1, 0, 192)"><g clip-path="url(#4edcf045fb)"><g clip-path="url(#a1d22ac246)"><g transform="matrix(1, 0, 0, 1, 0, 0.000000000000028422)"><g clip-path="url(#b2577722a8)"><g clip-path="url(#5c0bacc98c)"><g transform="matrix(1, 0, 0, 1, 0, 0.000000000000028422)"><g clip-path="url(#cd052f5549)"><g clip-path="url(#2f16130e92)"><path fill="#bd1f2d" d="M -26.957031 0.03125 L 13.996094 0.03125 L 13.996094 150.886719 L -26.957031 150.886719 Z M -26.957031 0.03125 " fill-opacity="1" fill-rule="nonzero"/></g></g></g></g><g clip-path="url(#a52adc0ab2)"><g transform="matrix(1, 0, 0, 1, 12, 100)"><g clip-path="url(#fa50bbfcd2)"><g clip-path="url(#44299213bf)"><path fill="#bd1f2d" d="M 0.886719 0.570312 L 40.753906 0.570312 L 40.753906 151.46875 L 0.886719 151.46875 Z M 0.886719 0.570312 " fill-opacity="1" fill-rule="nonzero"/></g></g></g></g><g clip-path="url(#0e3629fad2)"><g transform="matrix(1, 0, 0, 1, 50, 199)"><g clip-path="url(#5a85ced5a8)"><g clip-path="url(#0765075f35)"><path fill="#bd1f2d" d="M 0.0546875 0.949219 L 42.617188 0.949219 L 42.617188 52.492188 L 0.0546875 52.492188 Z M 0.0546875 0.949219 " fill-opacity="1" fill-rule="nonzero"/></g></g></g></g><g clip-path="url(#a3d21a4492)"><g transform="matrix(1, 0, 0, 1, 92, 251)"><g clip-path="url(#6a4df34db6)"><g clip-path="url(#01cfadcce2)"><path fill="#bd1f2d" d="M 0.617188 0.464844 L 40.484375 0.464844 L 40.484375 99.816406 L 0.617188 99.816406 Z M 0.617188 0.464844 " fill-opacity="1" fill-rule="nonzero"/></g></g></g></g><g clip-path="url(#0cbec172cd)"><g transform="matrix(1, 0, 0, 1, 54, 350)"><g clip-path="url(#d2a76b919d)"><g clip-path="url(#014465cdf5)"><path fill="#bd1f2d" d="M 0.96875 0.839844 L 40.835938 0.839844 L 40.835938 100.191406 L 0.96875 100.191406 Z M 0.96875 0.839844 " fill-opacity="1" fill-rule="nonzero"/></g></g></g></g><g clip-path="url(#83f010e5df)"><g transform="matrix(1, 0, 0, 1, 92, 400)"><g clip-path="url(#3638bec8d7)"><g clip-path="url(#adacac1e8d)"><path fill="#bd1f2d" d="M 0.617188 0.527344 L 42.699219 0.527344 L 42.699219 50.171875 L 0.617188 50.171875 Z M 0.617188 0.527344 " fill-opacity="1" fill-rule="nonzero"/></g></g></g></g><g clip-path="url(#4389f7fe01)"><g transform="matrix(1, 0, 0, 1, 134, 450)"><g clip-path="url(#6a2f1b99f3)"><g clip-path="url(#6a9320d4e1)"><path fill="#bd1f2d" d="M 0.699219 0.214844 L 40.566406 0.214844 L 40.566406 49.890625 L 0.699219 49.890625 Z M 0.699219 0.214844 " fill-opacity="1" fill-rule="nonzero"/></g></g></g></g><g clip-path="url(#c1619c2718)"><g transform="matrix(1, 0, 0, 1, 174, 499)"><g clip-path="url(#e2ddf732de)"><g clip-path="url(#a81ca8351d)"><path fill="#bd1f2d" d="M 0.566406 0.902344 L 40.433594 0.902344 L 40.433594 50.578125 L 0.566406 50.578125 Z M 0.566406 0.902344 " fill-opacity="1" fill-rule="nonzero"/></g></g></g></g><g clip-path="url(#7c2f8e773d)"><g transform="matrix(1, 0, 0, 1, 132, 549)"><g clip-path="url(#69a4167e05)"><g clip-path="url(#eba34eaffc)"><path fill="#bd1f2d" d="M 0.484375 0.589844 L 40.351562 0.589844 L 40.351562 100.722656 L 0.484375 100.722656 Z M 0.484375 0.589844 " fill-opacity="1" fill-rule="nonzero"/></g></g></g></g></g></g></g></g></g></g></svg>